<?xml version="1.0" standalone="no"?>
<!DOCTYPE svg PUBLIC "-//W3C//DTD SVG 20010904//EN"
 "http://www.w3.org/TR/2001/REC-SVG-20010904/DTD/svg10.dtd">
<svg version="1.0" xmlns="http://www.w3.org/2000/svg"
 width="945.000000pt" height="450.000000pt" viewBox="0 0 945.000000 450.000000"
 preserveAspectRatio="xMidYMid meet">

<g transform="translate(0.000000,450.000000) scale(0.100000,-0.100000)"
fill="#000000" stroke="none">
<path d="M5 2250 c0 -1240 1 -1748 2 -1127 2 620 2 1634 0 2255 -1 620 -2 112
-2 -1128z"/>
<path d="M3856 3699 c-3 -19 -4 -531 -3 -1139 2 -1045 3 -1105 20 -1104 9 0
1201 1 2647 2 l2630 2 -1 38 c0 31 -2 34 -10 17 -10 -20 -19 -20 -686 -18
-528 2 -679 0 -685 -10 -6 -9 -8 -9 -8 0 0 10 -104 13 -473 12 -282 0 -484 4
-499 10 -17 6 -72 6 -154 0 -152 -11 -548 -12 -552 -1 -1 4 -41 6 -90 4 -119
-3 -560 -12 -707 -13 -66 -1 -130 -5 -142 -10 -14 -5 -23 -4 -26 4 -3 11 -15
12 -167 4 -14 0 -233 0 -487 1 -404 2 -463 4 -463 17 0 12 16 15 81 15 76 0
79 1 63 17 -15 16 -15 17 2 23 25 9 -33 21 -98 20 -37 -1 -48 3 -48 15 0 8 -5
15 -11 15 -8 0 -10 -18 -7 -56 4 -47 2 -57 -14 -65 -11 -6 -27 -8 -35 -4 -9 3
-20 1 -23 -6 -10 -16 -22 93 -15 133 3 18 8 294 11 613 3 319 6 600 6 625 1
25 -4 128 -10 230 -5 102 -8 278 -5 391 6 200 5 207 -15 229 l-21 22 -5 -33z
m51 -861 c-2 -13 -4 -3 -4 22 0 25 2 35 4 23 2 -13 2 -33 0 -45z"/>
<path d="M3911 3655 c1 -22 3 -33 6 -24 3 14 40 16 361 13 196 -2 376 -6 400
-9 34 -5 42 -3 42 10 0 12 4 14 19 5 11 -5 29 -10 40 -10 10 0 22 -6 24 -12 5
-13 20 1 31 27 2 7 10 6 22 -1 29 -16 734 -20 744 -4 6 10 32 10 121 0 113
-12 420 -9 542 5 40 5 57 3 57 -5 0 -12 308 -8 423 5 48 6 57 4 57 -9 0 -13
13 -15 94 -12 52 3 104 9 115 15 11 6 75 11 145 11 119 0 126 -1 126 -20 0
-17 7 -20 40 -20 22 0 40 5 40 10 0 6 47 10 120 10 73 0 120 4 120 10 0 6 18
10 40 10 22 0 40 5 40 10 0 6 -18 10 -40 10 -22 0 -40 5 -40 10 0 6 -60 10
-160 10 -100 0 -160 -4 -160 -10 0 -6 -51 -10 -134 -10 -79 0 -137 4 -141 10
-9 15 -205 13 -205 -1 0 -9 -21 -10 -77 -4 -80 9 -252 11 -423 6 -52 -2 -178
0 -280 4 -127 5 -221 3 -300 -5 -85 -10 -115 -10 -118 -1 -3 8 -102 11 -362
11 -316 0 -359 -2 -364 -16 -7 -18 -52 -15 -49 4 4 18 -54 15 -61 -3 -7 -20
-70 -20 -86 0 -10 12 -68 14 -391 12 l-379 -2 1 -40z"/>
<path d="M7760 3660 l0 -40 40 0 c22 0 40 5 40 10 0 6 18 10 39 10 22 0 41 5
43 11 3 9 33 9 118 0 172 -17 680 -20 680 -4 0 10 30 13 120 13 78 0 120 -4
120 -11 0 -7 33 -9 95 -8 l95 3 0 28 c0 29 -14 38 -23 16 -4 -10 -6 -10 -6 0
-1 15 -241 18 -241 2 0 -6 -33 -10 -80 -10 -47 0 -80 4 -80 10 0 14 -578 13
-697 -2 -75 -9 -98 -9 -101 0 -2 8 -31 12 -83 12 l-79 0 0 -40z"/>
<path d="M2830 3632 c-19 -11 -53 -22 -75 -26 -146 -24 -313 -185 -336 -324
-17 -109 -5 -295 22 -328 5 -7 17 -28 27 -47 18 -37 111 -147 124 -147 4 0 16
-7 26 -16 20 -19 154 -104 197 -126 17 -8 46 -24 65 -35 19 -11 73 -42 120
-69 47 -26 89 -53 93 -61 4 -7 14 -13 21 -13 19 0 129 -119 148 -161 15 -31
23 -135 19 -240 -3 -78 -96 -165 -211 -197 -115 -32 -332 -13 -499 43 -57 19
-109 39 -116 45 -6 5 -24 9 -39 8 l-26 -2 0 -90 c0 -117 18 -150 88 -161 26
-4 63 -14 82 -22 43 -19 431 -31 495 -15 210 52 290 91 384 191 64 66 98 141
112 246 21 163 -15 301 -110 416 -51 62 -175 166 -242 204 -24 13 -61 35 -83
47 -77 46 -132 77 -181 102 -131 66 -209 132 -258 216 -27 47 -31 65 -31 125
0 62 3 77 32 124 44 71 75 96 152 123 92 31 211 30 355 -3 61 -14 124 -33 142
-42 18 -9 50 -17 73 -17 l40 0 0 99 c0 113 15 96 -130 142 -66 21 -98 24 -260
27 -166 3 -189 1 -220 -16z"/>
<path d="M260 3592 c0 -4 -2 -237 -5 -517 -3 -281 -2 -708 2 -950 l8 -440 105
-3 c58 -1 112 2 120 8 13 8 15 126 17 946 2 681 0 941 -8 950 -8 10 -42 14
-125 14 -63 0 -114 -3 -114 -8z"/>
<path d="M1037 3593 c-3 -4 -5 -62 -4 -128 0 -66 -5 -158 -11 -205 -19 -132
-16 -1028 3 -1153 12 -80 13 -116 3 -200 -13 -115 -15 -185 -5 -210 5 -15 23
-17 126 -17 99 0 120 3 125 16 3 9 6 172 6 363 0 336 1 349 20 366 16 15 46
20 148 26 154 9 337 41 361 63 10 9 29 16 43 16 14 0 31 7 39 16 7 8 29 24 48
34 45 22 104 80 136 130 13 21 29 41 34 45 6 3 16 25 22 48 6 23 15 45 21 48
12 7 58 220 58 268 0 18 -4 50 -9 70 -5 20 -17 66 -26 104 -10 37 -21 67 -25
67 -4 0 -15 18 -25 39 -9 22 -29 51 -44 64 -37 36 -155 97 -186 97 -14 0 -42
8 -63 17 -32 15 -83 18 -414 21 -207 2 -378 0 -381 -5z m628 -185 c17 -9 53
-27 80 -39 67 -31 152 -119 165 -173 6 -22 15 -50 21 -61 5 -11 10 -33 11 -50
1 -43 -38 -181 -64 -224 -46 -76 -150 -161 -215 -177 -15 -4 -38 -14 -51 -22
-15 -10 -63 -16 -152 -20 -111 -4 -133 -2 -155 12 l-26 17 3 352 c2 194 7 359
11 368 16 33 49 39 197 36 112 -2 152 -6 175 -19z"/>
<path d="M4275 3530 c28 -12 45 -12 45 0 0 6 -15 10 -32 9 -28 0 -30 -2 -13
-9z"/>
<path d="M6188 3533 c6 -2 18 -2 25 0 6 3 1 5 -13 5 -14 0 -19 -2 -12 -5z"/>
<path d="M9145 2580 c0 -531 1 -748 2 -483 2 266 2 700 0 965 -1 266 -2 49 -2
-482z"/>
<path d="M6186 3505 c4 -8 17 -15 30 -15 15 0 24 6 24 15 0 10 -10 15 -30 15
-22 0 -28 -4 -24 -15z"/>
<path d="M4726 3466 c5 -14 35 -26 64 -26 13 0 13 1 0 10 -10 6 -11 10 -2 10
6 0 12 5 12 10 0 6 -18 10 -40 10 -30 0 -38 -3 -34 -14z"/>
<path d="M6743 3467 c-19 -11 -14 -12 40 -13 34 0 53 2 42 4 -11 2 -24 8 -29
13 -13 12 -26 11 -53 -4z"/>
<path d="M4093 3453 c9 -2 23 -2 30 0 6 3 -1 5 -18 5 -16 0 -22 -2 -12 -5z"/>
<path d="M5928 3453 c6 -2 18 -2 25 0 6 3 1 5 -13 5 -14 0 -19 -2 -12 -5z"/>
<path d="M6896 3429 c-9 -46 -8 -49 13 -49 13 0 21 -10 26 -32 4 -18 7 -37 6
-41 -1 -5 3 -6 9 -2 5 3 10 1 10 -4 0 -6 12 -11 26 -11 14 0 23 4 20 8 -3 5
-1 33 3 64 7 54 6 57 -16 63 -13 3 -28 3 -33 0 -5 -3 -15 3 -22 15 -18 29 -35
25 -42 -11z"/>
<path d="M7360 3448 c0 -8 5 -19 12 -26 9 -9 9 -12 -1 -12 -7 0 -10 -4 -6 -10
6 -10 1129 -14 1219 -4 53 6 79 24 36 24 -11 0 -20 4 -20 10 0 6 -217 9 -606
9 -449 0 -609 3 -620 12 -11 9 -14 8 -14 -3z"/>
<path d="M4087 3433 c-4 -3 1 -12 11 -19 16 -13 16 -13 0 -14 -10 0 -18 -3
-18 -7 0 -9 557 -6 608 2 l33 6 -24 20 c-24 18 -43 19 -314 19 -160 0 -293 -3
-296 -7z"/>
<path d="M5920 3430 c0 -5 7 -10 16 -10 10 0 14 -5 10 -15 -5 -14 42 -15 413
-15 230 1 430 -2 444 -6 24 -5 27 -11 27 -48 0 -49 4 -56 31 -49 13 4 18 11
14 23 -3 10 -8 29 -10 42 -3 12 -9 24 -15 26 -5 2 -10 10 -10 18 0 9 -4 12
-10 9 -5 -3 -10 -1 -10 5 0 6 -4 8 -10 5 -5 -3 -10 0 -10 8 0 13 -61 15 -440
16 -288 1 -440 -2 -440 -9z"/>
<path d="M3901 3313 c1 -82 15 -267 17 -235 2 27 18 29 34 2 19 -30 28 -24 28
20 0 33 3 40 20 40 23 0 25 -23 11 -120 -9 -55 1 -96 20 -85 5 4 9 -3 9 -14 0
-14 -6 -21 -20 -21 -24 0 -26 -13 -5 -30 8 -7 15 -23 15 -37 0 -13 -7 -26 -15
-29 -20 -8 -19 -34 2 -49 15 -11 15 -14 0 -35 -12 -17 -13 -29 -6 -47 6 -16 6
-38 0 -61 -11 -39 -7 -52 15 -52 19 0 18 -38 -1 -42 -12 -2 -16 -28 -19 -130
-2 -74 0 -128 5 -128 12 0 12 -147 -1 -170 -7 -12 -7 -28 0 -44 5 -14 6 -26 1
-26 -4 0 -7 -24 -6 -52 2 -29 1 -47 -2 -40 -3 6 -16 12 -29 12 -23 0 -24 -3
-24 -66 0 -55 -3 -65 -15 -60 -10 4 -15 -1 -15 -14 0 -27 26 -25 34 3 3 12 6
44 6 71 0 27 3 47 6 44 3 -3 5 -24 6 -46 0 -24 6 -43 13 -46 17 -6 24 13 18
47 -5 24 -2 27 21 27 14 0 26 3 27 8 6 53 8 178 7 362 -4 526 0 826 9 850 7
18 7 36 -3 62 -7 20 -11 38 -10 40 2 1 6 38 10 81 l7 77 -26 0 c-17 0 -29 -7
-35 -22 l-9 -23 0 23 c-1 12 -5 22 -11 22 -6 0 -10 -33 -10 -80 0 -103 -18
-105 -23 -2 -2 42 -3 24 -1 -40 4 -112 3 -118 -16 -118 -19 0 -20 5 -13 120 5
108 4 120 -10 120 -14 0 -17 -11 -16 -67z m117 -45 c-1 -13 2 -32 5 -44 4 -12
1 -28 -8 -40 -13 -18 -14 -16 -15 21 0 39 9 85 16 85 2 0 3 -10 2 -22z m22
-1290 c0 -16 -3 -19 -11 -11 -6 6 -8 16 -5 22 11 17 16 13 16 -11z"/>
<path d="M7234 3319 c3 -34 6 -124 6 -200 0 -132 1 -139 20 -139 17 0 20 7 20
40 0 22 -4 40 -10 40 -6 0 -10 33 -10 80 0 47 4 80 10 80 6 0 10 -30 10 -70 0
-38 4 -70 9 -70 12 0 21 40 15 67 -4 13 -2 23 4 23 13 0 22 -144 23 -385 1
-110 1 -209 0 -220 -7 -168 -7 -214 2 -208 6 4 8 0 4 -10 -3 -8 -1 -29 5 -45
10 -25 9 -33 -5 -47 -19 -18 -19 -21 -22 -125 -1 -41 -5 -87 -9 -102 -11 -38
0 -75 24 -81 17 -4 20 -13 20 -59 0 -29 -3 -63 -6 -76 l-7 -23 -342 3 -343 3
-6 -35 c-9 -54 -7 -60 14 -60 17 0 20 -7 20 -40 l0 -40 -60 0 c-53 0 -60 -2
-60 -20 0 -17 -8 -20 -77 -23 l-78 -3 78 -2 c61 -2 77 -5 77 -17 0 -12 18 -15
105 -15 85 0 105 3 105 15 0 10 16 15 58 18 l57 3 -57 2 c-51 2 -58 5 -58 22
0 15 -7 20 -25 20 -24 0 -25 3 -25 60 l0 60 66 0 c45 0 70 -5 80 -15 19 -19
34 -19 34 -1 0 8 7 16 15 20 17 6 45 -2 45 -15 0 -4 15 -2 33 5 36 16 357 22
465 11 52 -6 62 -11 62 -26 0 -13 7 -19 21 -19 12 0 18 4 13 11 -8 14 14 29
44 29 15 0 22 -6 22 -20 0 -13 7 -20 20 -20 13 0 20 7 20 19 0 17 11 19 127
23 69 2 149 0 177 -5 91 -16 175 -19 222 -9 42 9 69 6 117 -13 12 -5 17 -2 17
8 0 21 15 24 97 21 40 -2 87 2 105 8 24 9 33 8 36 0 2 -7 19 -12 39 -12 26 0
36 5 40 20 4 13 14 20 31 20 14 0 22 3 19 7 -4 3 -300 7 -659 7 l-653 1 -12
95 c-7 52 -15 107 -19 123 -4 17 -2 27 5 27 8 0 11 149 10 540 -1 479 -6 585
-22 523 -3 -10 -5 2 -5 27 0 25 2 37 5 28 11 -41 23 -13 23 52 0 75 -13 92
-31 40 -11 -31 -17 -35 -35 -22 -11 7 -25 74 -14 67 3 -2 12 0 20 6 10 6 11 9
3 9 -8 0 -13 14 -13 35 0 33 -2 35 -31 35 l-32 0 7 -61z m-511 -1746 c-29 -2
-78 -2 -110 0 -32 2 -8 3 52 3 61 0 87 -1 58 -3z"/>
<path d="M8849 3366 c16 -19 44 -21 39 -3 -3 6 -15 14 -28 15 -21 3 -22 2 -11
-12z"/>
<path d="M8660 3360 c0 -5 11 -10 25 -10 14 0 25 5 25 10 0 6 -11 10 -25 10
-14 0 -25 -4 -25 -10z"/>
<path d="M8752 3330 c-1 -16 2 -30 8 -30 6 0 24 -13 42 -30 17 -16 37 -30 44
-30 7 0 14 -10 16 -22 4 -27 48 -39 48 -14 0 9 0 19 0 24 0 4 -6 7 -12 7 -19
0 -39 31 -32 50 6 14 8 13 21 -5 8 -11 18 -20 22 -20 15 0 7 35 -11 48 -10 7
-15 18 -12 24 5 8 -6 9 -37 5 -30 -4 -50 -1 -63 9 -28 20 -31 18 -34 -16z"/>
<path d="M4754 3337 c-2 -7 -3 -241 -2 -522 l3 -510 343 -1 c285 -1 344 1 354
13 21 26 -26 39 -127 35 -124 -6 -361 0 -372 10 -10 8 -18 7 -31 -6 -22 -19
-39 -21 -44 -4 -4 10 -10 10 -30 1 -14 -6 -30 -8 -36 -4 -17 10 -20 120 -4
130 9 6 10 14 3 34 -14 36 -16 684 -3 718 12 29 6 69 -10 69 -5 0 -7 8 -3 19
4 13 0 20 -15 24 -12 3 -23 0 -26 -6z"/>
<path d="M4888 3343 c7 -3 16 -2 19 1 4 3 -2 6 -13 5 -11 0 -14 -3 -6 -6z"/>
<path d="M4938 3343 c7 -3 16 -2 19 1 4 3 -2 6 -13 5 -11 0 -14 -3 -6 -6z"/>
<path d="M5920 3339 c0 -5 5 -7 10 -4 6 3 10 8 10 11 0 2 -4 4 -10 4 -5 0 -10
-5 -10 -11z"/>
<path d="M5840 3317 c0 -8 -6 -17 -14 -20 -10 -4 -12 -18 -9 -50 4 -32 0 -52
-13 -71 -15 -24 -15 -29 -3 -37 12 -9 12 -12 -2 -21 -14 -9 -13 -14 9 -35 28
-28 41 -19 42 27 0 41 11 70 26 70 16 0 15 -2 18 63 1 29 7 52 16 57 19 12 10
20 -34 27 -28 4 -36 2 -36 -10z m28 -59 c-6 -18 -28 -21 -28 -4 0 9 7 16 16
16 9 0 14 -5 12 -12z"/>
<path d="M7115 3321 c-3 -6 0 -11 7 -12 7 0 4 -4 -6 -8 -16 -6 -20 -18 -21
-57 -1 -48 11 -94 26 -94 21 0 39 14 39 30 0 13 -6 17 -19 13 -11 -3 -21 2
-24 11 -5 12 0 16 18 16 24 0 25 3 22 52 -1 40 -6 54 -19 56 -9 2 -19 -2 -23
-7z"/>
<path d="M7010 3260 c0 -22 -20 -40 -43 -40 -13 0 -17 -5 -13 -16 3 -9 6 -18
6 -20 0 -2 12 -4 26 -4 21 0 24 4 19 20 -4 12 -2 20 5 20 6 0 9 -4 6 -9 -3 -5
0 -11 7 -14 10 -4 14 6 15 37 2 32 -2 43 -13 43 -8 0 -15 -8 -15 -17z"/>
<path d="M6878 3237 c-9 -45 3 -97 22 -97 14 0 18 -11 22 -56 4 -45 10 -60 29
-74 19 -15 23 -26 20 -60 -2 -35 1 -42 18 -47 14 -4 25 -19 32 -47 10 -36 12
-39 20 -19 4 12 18 27 30 34 19 10 20 13 8 23 -8 6 -22 26 -33 45 -15 27 -16
35 -5 42 12 7 11 10 -2 21 -24 19 -59 82 -59 105 0 12 -8 27 -17 34 -11 9 -14
10 -9 2 5 -9 2 -11 -8 -7 -9 3 -16 7 -17 8 0 0 -3 21 -6 46 -8 65 -36 94 -45
47z"/>
<path d="M5618 3146 c-27 -20 -23 -46 8 -46 21 0 24 -4 19 -20 -5 -14 -2 -20
9 -20 12 0 16 9 14 33 -1 17 2 40 6 50 7 13 3 17 -15 17 -13 0 -32 -7 -41 -14z"/>
<path d="M8918 3091 c-2 -9 -1 -32 3 -51 l6 -35 2 33 c1 44 19 41 24 -5 3 -32
4 -30 5 13 2 43 -1 52 -17 57 -12 3 -21 -1 -23 -12z"/>
<path d="M5713 3093 c-41 -5 -45 -33 -5 -33 l27 0 -23 -18 -22 -17 35 -19 c19
-11 35 -25 35 -32 0 -11 29 -28 37 -21 2 2 5 27 8 55 4 50 3 52 -21 52 -17 0
-24 5 -24 20 0 11 -3 19 -7 18 -5 0 -23 -3 -40 -5z"/>
<path d="M5580 3046 c25 -14 40 -13 40 5 0 5 -15 9 -32 9 l-33 -1 25 -13z"/>
<path d="M7120 3047 c0 -8 -7 -28 -16 -46 -19 -38 -12 -96 13 -105 9 -4 18 -4
21 -1 3 3 0 5 -6 5 -7 0 -12 10 -12 22 0 12 3 18 7 15 3 -4 11 1 18 11 16 24
7 112 -11 112 -8 0 -14 -6 -14 -13z"/>
<path d="M8022 2996 c2 -18 16 -31 56 -52 58 -31 66 -28 79 29 6 27 26 36 39
16 4 -8 9 -7 15 2 15 24 -2 29 -96 29 -94 0 -95 0 -93 -24z"/>
<path d="M8923 2950 c0 -30 2 -43 4 -27 2 15 2 39 0 55 -2 15 -4 2 -4 -28z"/>
<path d="M6358 2889 c-3 -71 -8 -94 -21 -104 -12 -8 -19 -32 -23 -73 -5 -59
-5 -60 18 -55 73 19 109 129 61 185 -8 9 -17 43 -20 75 -3 32 -6 59 -8 61 -1
2 -4 -38 -7 -89z"/>
<path d="M8220 2965 c-6 -8 -17 -12 -23 -10 -19 7 -39 -11 -35 -31 2 -11 13
-20 26 -22 25 -4 30 -27 6 -36 -32 -12 -97 -6 -116 11 -15 14 -21 14 -27 4 -6
-10 -10 -8 -15 6 -6 15 -10 13 -22 -16 -8 -18 -14 -38 -14 -43 0 -7 38 -9 103
-6 140 5 178 31 163 113 -7 37 -29 51 -46 30z"/>
<path d="M5608 2939 c6 -7 12 -27 12 -44 0 -40 20 -68 43 -59 22 8 30 40 19
79 -7 26 -14 30 -48 33 -31 3 -37 1 -26 -9z"/>
<path d="M3974 2740 c0 -91 2 -128 3 -82 2 45 2 119 0 165 -1 45 -3 8 -3 -83z"/>
<path d="M5730 2874 c0 -14 -4 -23 -9 -20 -5 3 -12 -11 -16 -31 -6 -35 -8 -37
-21 -19 -16 22 -16 22 -38 -21 -22 -44 -20 -58 9 -81 14 -11 25 -29 25 -41 0
-12 4 -21 9 -21 12 0 21 52 21 121 0 33 4 59 10 59 6 0 10 -8 10 -17 0 -34 18
2 24 50 6 39 5 47 -8 47 -10 0 -16 -9 -16 -26z"/>
<path d="M7230 2820 c0 -47 4 -80 10 -80 6 0 10 33 10 80 0 47 -4 80 -10 80
-6 0 -10 -33 -10 -80z"/>
<path d="M7263 2820 c0 -47 2 -66 4 -42 2 23 2 61 0 85 -2 23 -4 4 -4 -43z"/>
<path d="M8140 2885 c0 -8 5 -15 10 -15 6 0 10 7 10 15 0 8 -4 15 -10 15 -5 0
-10 -7 -10 -15z"/>
<path d="M7123 2859 c-31 -12 -31 -43 -1 -33 20 6 21 5 9 -10 -9 -11 -10 -16
-2 -16 16 0 37 48 25 59 -5 5 -19 5 -31 0z"/>
<path d="M7079 2789 c-18 -18 -19 -28 -13 -77 3 -31 8 -60 11 -65 8 -13 22 3
16 18 -6 18 13 20 21 3 4 -7 3 5 0 27 -4 22 -7 57 -8 78 -1 20 -2 37 -3 37 -2
0 -12 -9 -24 -21z"/>
<path d="M8865 2752 c-3 -3 -5 -16 -5 -29 0 -16 6 -23 20 -23 19 0 47 36 36
48 -8 7 -44 10 -51 4z"/>
<path d="M7165 2699 c-4 -11 -4 -23 -1 -26 8 -9 38 26 31 37 -10 16 -23 12
-30 -11z"/>
<path d="M8808 2681 c-7 -12 -18 -21 -24 -21 -6 0 -28 -16 -50 -35 l-39 -34
41 -1 c22 0 45 5 52 12 9 9 12 8 12 -5 0 -9 -7 -17 -15 -17 -25 0 -6 -26 30
-40 19 -8 35 -19 35 -26 0 -22 28 -36 54 -27 23 7 24 10 13 33 -7 14 -21 24
-30 24 -10 -1 -17 5 -17 17 0 14 -7 19 -25 19 -22 0 -30 9 -26 33 0 4 -3 7 -9
7 -5 0 -10 9 -10 20 0 14 7 20 24 20 17 0 23 5 22 17 -4 25 -23 27 -38 4z"/>
<path d="M6418 2653 c-23 -22 -6 -71 25 -69 12 1 22 7 21 14 -1 6 -2 26 -2 42
-2 33 -17 37 -44 13z"/>
<path d="M7242 2598 c-1 -36 -5 -73 -8 -82 -4 -11 0 -16 14 -16 24 0 40 19 24
29 -7 4 -8 12 -2 21 14 21 12 30 -4 30 -10 0 -16 14 -19 43 -2 31 -4 24 -5
-25z"/>
<path d="M5650 2635 c-7 -9 -19 -14 -27 -11 -14 6 -16 -8 -13 -81 1 -37 -1
-43 -19 -43 -22 0 -26 -16 -22 -73 2 -20 -5 -34 -23 -48 -22 -17 -26 -29 -27
-72 0 -34 -3 -45 -8 -33 -4 11 -17 21 -29 23 -22 3 -22 3 -21 -185 l1 -187 13
87 c7 48 20 99 29 113 9 13 16 45 16 70 0 39 3 47 25 55 21 8 24 16 27 72 2
48 7 63 18 63 11 0 16 14 18 53 3 47 5 52 27 52 22 0 24 3 27 80 2 44 2 80 2
80 -1 0 -7 -7 -14 -15z"/>
<path d="M6266 2628 c-3 -13 -6 -29 -6 -35 0 -18 45 -16 60 2 7 8 17 12 23 8
6 -4 7 -1 3 6 -5 7 -14 10 -22 7 -8 -3 -22 4 -33 15 l-18 20 -7 -23z"/>
<path d="M8871 2624 c0 -11 3 -14 6 -6 3 7 2 16 -1 19 -3 4 -6 -2 -5 -13z"/>
<path d="M7112 2568 c-3 -62 4 -88 23 -88 13 0 20 -23 27 -90 2 -17 9 -25 23
-25 12 0 19 6 17 14 -2 8 3 11 13 8 8 -4 15 -2 15 4 0 5 -7 12 -15 15 -10 4
-15 20 -15 45 0 26 -4 39 -14 39 -16 0 -30 83 -15 88 15 6 10 29 -7 36 -41 16
-50 8 -52 -46z"/>
<path d="M3914 2340 c0 -135 1 -143 3 -42 l4 122 29 0 c35 0 38 10 9 36 -17
15 -22 16 -29 4 -6 -10 -10 -5 -13 16 -2 16 -4 -45 -3 -136z"/>
<path d="M5440 2493 c0 -12 51 -33 74 -32 15 1 11 4 -11 11 -18 6 -33 15 -33
19 0 5 -7 9 -15 9 -8 0 -15 -3 -15 -7z"/>
<path d="M4880 2475 c0 -9 6 -12 15 -9 8 4 15 10 15 15 0 5 -7 9 -15 9 -8 0
-15 -7 -15 -15z"/>
<path d="M5231 2476 c-33 -9 -41 -33 -16 -42 8 -4 15 -12 15 -20 0 -8 9 -14
19 -14 11 0 28 -3 38 -7 16 -6 17 -5 3 13 -14 18 -14 18 6 2 26 -23 76 -25 68
-3 -4 10 0 15 10 15 9 0 26 6 37 13 17 10 23 10 26 0 8 -22 43 -15 43 7 0 15
-7 20 -26 20 -14 0 -35 5 -46 11 -26 14 -135 17 -177 5z"/>
<path d="M4943 2453 c-7 -2 -13 -9 -13 -15 0 -6 -7 -16 -15 -22 -14 -10 -11
-14 15 -29 l30 -18 0 45 c0 25 -1 46 -2 45 -2 0 -9 -3 -15 -6z"/>
<path d="M5497 2443 c-14 -13 -6 -23 18 -23 16 0 25 6 25 15 0 15 -31 21 -43
8z"/>
<path d="M4860 2430 c0 -5 5 -10 10 -10 6 0 10 5 10 10 0 6 -4 10 -10 10 -5 0
-10 -4 -10 -10z"/>
<path d="M8004 2394 c3 -9 6 -20 6 -24 0 -10 223 -5 240 5 5 3 10 13 10 21 0
11 -24 14 -131 14 -115 0 -130 -2 -125 -16z"/>
<path d="M7250 2369 c0 -6 -8 -8 -17 -5 -15 5 -18 -1 -21 -35 -3 -48 5 -82 19
-74 5 4 9 3 10 -2 0 -4 3 -17 5 -28 3 -11 6 -30 8 -43 5 -31 13 -37 31 -22 11
9 13 15 5 20 -9 5 -8 13 1 29 11 17 11 25 1 41 -6 11 -12 42 -12 69 0 34 -4
51 -15 55 -8 3 -15 1 -15 -5z"/>
<path d="M8276 2334 c4 -14 1 -36 -6 -50 -15 -26 -30 -32 -30 -10 0 7 -9 25
-21 40 -25 31 -68 35 -89 7 -7 -11 -17 -18 -22 -15 -4 3 -8 0 -8 -5 0 -6 9
-11 21 -11 11 0 18 4 14 9 -3 5 -1 12 5 16 6 3 13 -1 16 -9 3 -9 10 -13 15
-11 10 7 24 -40 16 -52 -10 -16 7 -31 38 -34 24 -3 30 0 35 21 4 15 13 25 24
25 15 0 19 9 20 53 1 44 -2 52 -17 52 -14 0 -16 -5 -11 -26z"/>
<path d="M8020 2336 c0 -23 16 -27 17 -5 1 10 -2 19 -8 19 -5 0 -9 -6 -9 -14z"/>
<path d="M3973 2300 c0 -25 2 -35 4 -22 2 12 2 32 0 45 -2 12 -4 2 -4 -23z"/>
<path d="M8922 2250 c0 -19 2 -27 5 -17 2 9 2 25 0 35 -3 9 -5 1 -5 -18z"/>
<path d="M8951 2254 c0 -11 3 -14 6 -6 3 7 2 16 -1 19 -3 4 -6 -2 -5 -13z"/>
<path d="M8027 2243 c-15 -14 -6 -33 16 -31 12 0 39 -2 60 -7 26 -5 37 -4 37
4 0 7 4 10 9 6 5 -3 13 -1 16 5 4 6 3 10 -2 9 -4 -2 -20 4 -36 11 -23 11 -31
11 -53 0 -20 -11 -27 -11 -33 -2 -4 7 -10 9 -14 5z"/>
<path d="M8952 2190 c0 -14 2 -19 5 -12 2 6 2 18 0 25 -3 6 -5 1 -5 -13z"/>
<path d="M8923 2110 c0 -25 2 -35 4 -22 2 12 2 32 0 45 -2 12 -4 2 -4 -23z"/>
<path d="M6142 2114 c-23 -17 -29 -120 -8 -143 9 -10 13 -21 9 -24 -3 -4 6 -7
22 -7 27 0 28 0 10 20 -11 12 -18 36 -19 62 l-1 43 105 -3 c58 -2 136 1 174 7
54 8 76 7 101 -3 28 -12 31 -17 27 -45 -4 -27 -1 -33 17 -38 16 -4 20 -11 16
-24 -8 -23 10 -25 31 -4 14 13 14 17 1 30 -9 8 -18 44 -22 79 l-7 64 -221 -1
c-142 -1 -225 -6 -235 -13z"/>
<path d="M8951 2044 c0 -11 3 -14 6 -6 3 7 2 16 -1 19 -3 4 -6 -2 -5 -13z"/>
<path d="M6220 2013 c0 -5 5 -15 10 -23 8 -12 10 -11 10 8 0 12 -4 22 -10 22
-5 0 -10 -3 -10 -7z"/>
<path d="M8875 1959 c-11 -17 1 -21 15 -4 8 9 8 15 2 15 -6 0 -14 -5 -17 -11z"/>
<path d="M6223 1940 c-1 -11 2 -20 8 -20 5 0 9 9 9 20 0 11 -4 20 -8 20 -4 0
-8 -9 -9 -20z"/>
<path d="M6468 1915 c-3 -13 -1 -22 3 -19 8 4 13 -41 10 -86 0 -10 1 -11 5 -2
9 20 27 14 21 -8 -3 -11 -1 -20 4 -20 5 0 9 36 9 80 0 78 -1 80 -24 80 -17 0
-25 -7 -28 -25z"/>
<path d="M8802 1899 c-18 -16 -32 -36 -32 -44 0 -8 -5 -15 -11 -15 -6 0 -8 -9
-4 -20 5 -15 1 -22 -17 -29 l-23 -10 23 0 c28 -1 54 22 47 42 -4 9 9 20 40 32
31 13 44 24 40 33 -3 8 -1 20 5 27 22 26 -36 12 -68 -16z"/>
<path d="M6099 1893 c-18 -4 -33 -70 -23 -97 10 -27 62 -19 105 15 51 41 52
60 2 48 -50 -11 -76 -3 -70 22 3 10 4 18 4 18 -1 -1 -9 -3 -18 -6z m61 -80 c0
-13 -3 -13 -15 -3 -8 7 -15 16 -15 21 0 5 7 6 15 3 8 -4 15 -13 15 -21z"/>
<path d="M6633 1884 c-7 -7 -13 -25 -13 -39 0 -14 -3 -24 -7 -23 -12 3 -53
-22 -53 -32 0 -6 16 -10 35 -10 19 0 35 4 35 9 0 5 6 16 13 23 7 8 10 27 7 49
-4 30 -7 34 -17 23z"/>
<path d="M8884 1836 c1 -12 9 -22 19 -24 12 -3 17 3 17 22 0 18 -5 24 -19 23
-11 -1 -18 -8 -17 -21z m26 0 c0 -3 -4 -8 -10 -11 -5 -3 -10 -1 -10 4 0 6 5
11 10 11 6 0 10 -2 10 -4z"/>
<path d="M8672 1823 c-6 -3 -10 -9 -6 -14 7 -12 54 -12 54 0 0 11 -30 19 -48
14z"/>
<path d="M4745 1790 c-357 -3 -642 -6 -632 -8 9 -1 17 -5 17 -10 0 -15 81 -42
128 -42 26 -1 67 -5 92 -10 29 -5 47 -5 51 2 4 6 25 7 53 3 31 -5 46 -4 46 4
0 14 57 15 65 1 10 -16 63 -12 73 6 8 14 12 14 45 0 21 -8 37 -11 37 -5 0 5
18 9 40 9 31 0 40 -4 40 -17 1 -17 1 -17 14 0 16 21 42 22 50 2 5 -13 10 -14
27 -4 46 24 81 29 115 14 29 -12 39 -12 67 -1 36 15 447 29 447 15 0 -5 9 -13
21 -19 16 -9 26 -8 45 4 21 15 28 15 59 2 30 -13 35 -13 35 0 0 7 2 14 5 14 3
0 21 -7 40 -14 19 -8 35 -11 35 -6 0 13 75 23 120 15 30 -5 40 -11 40 -26 0
-25 22 -24 37 0 11 17 20 19 68 14 54 -6 55 -5 55 21 0 14 -1 27 -2 28 -9 8
-787 12 -1333 8z"/>
<path d="M8858 1783 c7 -3 16 -2 19 1 4 3 -2 6 -13 5 -11 0 -14 -3 -6 -6z"/>
<path d="M6340 1740 c0 -33 3 -40 20 -40 17 0 20 7 20 40 0 33 -3 40 -20 40
-17 0 -20 -7 -20 -40z"/>
<path d="M4080 1710 c0 -31 13 -37 40 -20 10 6 11 10 3 10 -7 0 -13 6 -13 14
0 8 -7 16 -15 20 -11 4 -15 -2 -15 -24z"/>
<path d="M7895 1710 c3 -5 10 -10 16 -10 5 0 9 5 9 10 0 6 -7 10 -16 10 -8 0
-12 -4 -9 -10z"/>
<path d="M4480 1660 c0 -6 33 -9 83 -9 77 2 79 2 32 9 -72 12 -115 11 -115 0z"/>
<path d="M4960 1659 c0 -3 -73 -11 -162 -16 l-163 -10 201 -1 c270 -3 444 7
444 24 0 10 -34 13 -160 11 -88 -1 -160 -4 -160 -8z"/>
<path d="M5601 1636 c2 -2 58 -6 124 -8 75 -4 101 -3 70 2 -51 8 -202 13 -194
6z"/>
<path d="M5888 1623 c6 -2 18 -2 25 0 6 3 1 5 -13 5 -14 0 -19 -2 -12 -5z"/>
<path d="M4640 1610 c0 -6 33 -10 80 -10 47 0 80 4 80 10 0 6 -33 10 -80 10
-47 0 -80 -4 -80 -10z"/>
<path d="M6880 1610 c0 -6 33 -10 80 -10 47 0 80 4 80 10 0 6 -33 10 -80 10
-47 0 -80 -4 -80 -10z"/>
<path d="M7705 1610 c3 -5 29 -10 56 -10 31 0 48 4 44 10 -3 6 -29 10 -56 10
-31 0 -48 -4 -44 -10z"/>
<path d="M8000 1610 c0 -6 60 -10 160 -10 100 0 160 4 160 10 0 6 -60 10 -160
10 -100 0 -160 -4 -160 -10z"/>
<path d="M6080 1560 c0 -17 7 -20 40 -20 29 0 40 4 40 15 0 12 23 15 123 18
115 2 113 3 -40 5 -157 2 -163 1 -163 -18z"/>
<path d="M9142 1560 c0 -14 2 -19 5 -12 2 6 2 18 0 25 -3 6 -5 1 -5 -13z"/>
</g>
</svg>
