<svg id="svg" version="1.1" xmlns="http://www.w3.org/2000/svg" xmlns:xlink="http://www.w3.org/1999/xlink" width="400" height="190.47619047619048" viewBox="0, 0, 400,190.47619047619048"><g id="svgg"><path id="path0" d="M162.133 32.333 L 161.518 32.857 161.516 80.832 C 161.515 114.606,161.575 128.880,161.719 129.053 C 162.474 129.963,154.714 129.905,275.172 129.902 C 336.756 129.900,387.237 129.836,387.352 129.759 C 388.001 129.326,388.000 129.389,388.000 80.796 C 388.000 33.827,387.992 32.795,387.636 32.354 L 387.272 31.905 275.010 31.857 L 162.749 31.809 162.133 32.333 M198.795 47.925 C 200.196 48.968,200.084 47.117,200.190 71.056 C 200.291 93.738,200.282 93.508,201.100 93.527 C 201.176 93.529,207.538 93.550,215.238 93.575 C 229.831 93.621,229.837 93.621,230.206 94.423 C 230.292 94.610,230.391 97.972,230.427 101.895 C 230.499 109.753,230.552 110.096,231.563 109.154 C 231.846 108.890,231.997 108.440,232.088 107.583 C 232.256 106.003,232.706 104.423,233.176 103.763 C 233.384 103.470,233.847 102.069,234.205 100.650 C 234.563 99.230,235.112 97.484,235.425 96.770 C 235.738 96.056,236.093 95.012,236.213 94.450 C 236.333 93.888,236.753 92.731,237.146 91.878 C 237.539 91.025,238.046 89.525,238.271 88.544 C 238.576 87.221,238.835 86.570,239.279 86.017 C 239.743 85.439,239.935 84.934,240.139 83.749 C 240.400 82.237,240.814 81.143,241.124 81.143 C 241.295 81.143,241.848 79.406,242.344 77.311 C 242.509 76.618,242.905 75.637,243.226 75.131 C 243.547 74.625,243.810 74.009,243.810 73.762 C 243.810 72.927,244.426 70.577,244.882 69.670 C 245.132 69.174,245.465 68.274,245.622 67.670 C 246.113 65.780,246.490 64.711,247.153 63.333 C 247.505 62.600,247.930 61.314,248.097 60.476 C 248.305 59.431,248.631 58.563,249.135 57.714 C 249.629 56.883,249.915 56.132,250.004 55.429 C 250.078 54.852,250.202 54.295,250.281 54.190 C 250.359 54.086,250.475 53.667,250.537 53.259 C 250.600 52.852,250.873 52.199,251.145 51.807 C 251.416 51.415,251.828 50.471,252.060 49.709 C 252.770 47.373,250.924 47.597,269.537 47.589 C 287.053 47.582,286.401 47.544,287.589 48.637 C 288.213 49.211,288.341 49.499,288.673 51.079 C 288.834 51.843,289.252 52.989,289.601 53.625 C 289.971 54.298,290.412 55.550,290.655 56.615 C 290.925 57.800,291.272 58.749,291.635 59.298 C 292.018 59.875,292.325 60.745,292.593 62.010 C 292.810 63.035,293.180 64.180,293.415 64.556 C 293.858 65.263,294.223 66.206,294.749 68.000 C 294.917 68.576,295.263 69.412,295.517 69.857 C 295.964 70.643,296.434 72.145,296.784 73.905 C 296.877 74.376,297.176 75.190,297.448 75.714 C 297.987 76.754,298.569 78.516,298.769 79.714 C 298.839 80.133,299.201 81.076,299.573 81.810 C 299.945 82.543,300.408 83.786,300.601 84.571 C 300.793 85.357,301.249 86.600,301.613 87.333 C 301.977 88.067,302.408 89.352,302.571 90.190 C 302.758 91.153,303.157 92.275,303.654 93.238 C 304.086 94.076,304.558 95.316,304.702 95.993 C 304.846 96.670,305.171 97.578,305.426 98.012 C 305.853 98.742,306.133 99.581,307.043 102.857 C 307.232 103.538,307.533 104.379,307.712 104.725 C 307.892 105.071,308.284 106.208,308.584 107.252 C 308.885 108.295,309.341 109.512,309.597 109.956 C 310.294 111.159,310.446 112.788,309.908 113.289 C 309.324 113.833,308.080 113.881,295.482 113.842 L 284.774 113.810 284.204 113.143 C 283.891 112.776,283.631 112.415,283.627 112.341 C 283.623 112.266,283.309 111.551,282.929 110.752 C 282.420 109.679,282.195 108.892,282.070 107.745 C 281.863 105.849,281.715 105.394,280.940 104.268 C 280.464 103.576,280.294 103.069,280.144 101.895 C 279.827 99.409,280.738 99.618,270.231 99.627 C 258.642 99.638,259.039 99.553,258.659 102.095 C 258.542 102.881,258.075 104.638,257.622 106.000 C 257.168 107.362,256.577 109.419,256.309 110.571 C 255.741 113.006,255.437 113.393,253.864 113.674 C 253.255 113.784,237.859 113.866,214.952 113.882 C 173.861 113.911,175.381 113.948,174.592 112.891 L 174.190 112.353 174.135 81.367 C 174.075 48.568,174.067 49.038,174.754 48.238 C 175.360 47.534,175.553 47.524,187.843 47.524 C 198.133 47.524,198.264 47.529,198.795 47.925 M359.905 47.889 C 360.429 48.064,362.014 48.457,363.429 48.761 C 367.678 49.677,369.272 50.438,371.959 52.836 C 372.585 53.394,373.271 53.973,373.483 54.122 C 374.052 54.520,376.129 58.944,376.390 60.315 C 376.749 62.193,376.529 68.160,376.044 69.714 C 375.167 72.525,372.950 76.000,372.033 76.000 C 371.919 76.000,371.366 76.463,370.804 77.030 C 370.149 77.690,369.505 78.143,369.007 78.292 C 366.692 78.985,366.072 80.902,368.027 81.321 C 369.290 81.592,369.658 81.801,370.610 82.782 C 371.051 83.236,371.626 83.661,371.889 83.727 C 372.152 83.793,372.418 83.989,372.479 84.162 C 372.541 84.335,373.013 84.797,373.529 85.189 C 374.044 85.582,374.613 86.139,374.793 86.427 C 374.973 86.716,375.400 87.306,375.744 87.738 C 376.659 88.891,376.838 90.718,376.702 97.524 C 376.562 104.543,376.555 104.566,373.381 107.732 C 372.831 108.280,372.381 108.802,372.381 108.890 C 372.381 109.067,372.171 109.210,370.762 109.990 C 370.238 110.280,369.338 110.799,368.762 111.144 C 367.788 111.727,366.803 112.015,363.905 112.566 C 363.276 112.685,362.590 112.857,362.381 112.947 C 360.474 113.770,357.383 113.866,333.801 113.835 C 312.728 113.807,314.216 113.895,313.384 112.625 C 312.818 111.761,312.868 49.738,313.435 48.762 C 314.211 47.427,312.593 47.510,336.963 47.542 C 356.963 47.568,359.039 47.599,359.905 47.889 M338.185 61.313 C 337.031 62.096,336.914 62.664,336.987 67.143 C 337.075 72.516,337.052 72.492,342.000 72.303 C 348.550 72.052,350.115 71.308,351.236 67.911 C 351.932 65.803,350.519 62.556,348.702 62.089 C 348.264 61.976,347.262 61.684,346.476 61.440 C 345.321 61.081,344.462 60.977,341.994 60.898 L 338.941 60.801 338.185 61.313 M268.974 64.259 C 268.856 64.402,268.678 65.152,268.579 65.926 C 268.479 66.700,268.189 67.848,267.933 68.476 C 267.678 69.105,267.196 70.605,266.862 71.810 C 266.100 74.567,265.900 75.160,265.090 77.072 C 263.877 79.934,263.712 82.494,264.715 82.875 C 265.565 83.199,274.718 83.020,275.136 82.672 C 275.691 82.212,274.613 77.412,273.318 74.571 C 273.006 73.888,272.432 71.930,272.201 70.762 C 271.907 69.275,271.436 67.810,271.253 67.810 C 271.076 67.810,270.095 65.355,270.095 64.914 C 270.095 64.246,269.347 63.810,268.974 64.259 M338.720 87.290 C 337.097 87.611,337.048 87.780,337.048 93.016 C 337.048 99.468,336.987 99.391,342.095 99.411 C 348.621 99.437,352.190 97.158,352.190 92.964 C 352.190 90.800,352.062 90.355,351.298 89.883 C 350.937 89.660,350.441 89.158,350.194 88.768 C 349.455 87.597,342.014 86.638,338.720 87.290 " stroke="none" fill="#129dda" fill-rule="evenodd"></path><path id="path1" d="M0.571 95.238 L 0.571 190.476 200.286 190.476 L 400.000 190.476 400.000 95.238 L 400.000 0.000 200.286 0.000 L 0.571 0.000 0.571 95.238 M388.176 31.155 C 389.006 32.101,388.973 29.825,388.913 81.524 L 388.857 129.619 388.435 130.408 C 388.153 130.936,387.814 131.266,387.409 131.407 C 386.969 131.560,356.279 131.615,274.973 131.609 L 163.143 131.600 162.000 131.162 C 159.859 130.342,160.095 136.601,160.095 80.762 C 160.095 41.467,160.142 32.013,160.340 31.667 C 160.475 31.431,160.814 31.088,161.094 30.905 C 161.560 30.599,384.293 30.150,386.998 30.449 C 387.406 30.494,387.806 30.734,388.176 31.155 M130.477 34.103 C 131.517 34.414,135.345 34.997,137.238 35.133 C 139.949 35.328,141.293 35.593,142.551 36.181 C 143.195 36.482,144.063 36.790,144.480 36.866 C 146.792 37.285,146.896 37.595,146.820 43.783 C 146.756 48.942,146.669 49.485,145.844 49.853 C 145.320 50.087,143.850 49.810,143.238 49.363 C 142.249 48.639,141.014 48.221,137.810 47.524 C 137.181 47.387,136.035 47.052,135.262 46.779 C 132.901 45.944,126.516 45.420,123.810 45.839 C 120.613 46.334,120.008 46.494,118.510 47.244 C 116.466 48.267,115.183 49.588,114.644 51.225 C 114.417 51.913,114.087 52.690,113.911 52.952 C 112.965 54.356,112.963 55.604,113.904 57.619 C 114.197 58.248,114.536 59.148,114.656 59.619 C 115.015 61.023,115.240 61.463,115.709 61.677 C 115.954 61.789,116.305 62.135,116.489 62.446 C 116.672 62.757,117.144 63.192,117.537 63.413 C 117.930 63.634,118.424 64.108,118.636 64.468 C 118.926 64.959,119.227 65.175,119.844 65.339 C 120.297 65.458,120.924 65.794,121.238 66.086 C 121.552 66.377,122.324 66.846,122.952 67.127 C 123.581 67.409,124.395 67.924,124.762 68.273 C 125.206 68.696,125.766 68.986,126.439 69.142 C 127.076 69.290,127.794 69.649,128.387 70.118 C 128.903 70.526,129.790 71.033,130.359 71.246 C 130.928 71.459,131.680 71.843,132.030 72.100 C 132.380 72.357,133.224 72.831,133.905 73.154 C 134.586 73.477,135.378 73.981,135.665 74.274 C 135.952 74.567,136.740 75.071,137.415 75.394 C 138.090 75.716,138.733 76.150,138.844 76.357 C 138.955 76.564,139.496 76.945,140.047 77.204 C 140.985 77.646,143.272 79.577,144.369 80.854 C 144.637 81.167,145.502 82.067,146.290 82.854 C 147.959 84.522,148.479 85.214,148.847 86.258 C 148.995 86.675,149.421 87.303,149.795 87.651 C 150.381 88.198,150.514 88.488,150.750 89.749 C 150.901 90.554,151.336 91.883,151.718 92.702 L 152.411 94.190 152.519 97.554 C 152.634 101.105,152.542 101.830,151.579 104.952 C 151.370 105.633,151.032 106.876,150.829 107.714 C 150.543 108.893,150.315 109.389,149.822 109.905 C 149.471 110.271,149.123 110.786,149.049 111.048 C 148.975 111.310,148.497 111.952,147.986 112.476 C 147.476 113.000,146.478 114.048,145.768 114.805 C 144.984 115.641,144.269 116.227,143.946 116.298 C 143.654 116.362,143.226 116.673,142.993 116.989 C 142.761 117.305,141.999 117.852,141.300 118.206 C 140.601 118.559,139.977 118.930,139.915 119.032 C 139.670 119.427,138.120 120.023,136.705 120.265 C 135.608 120.453,135.002 120.676,134.385 121.119 C 133.518 121.742,132.199 122.095,130.742 122.095 C 130.288 122.095,128.393 122.316,126.530 122.586 C 122.541 123.165,117.068 123.160,114.095 122.576 C 113.205 122.401,111.434 122.191,110.159 122.110 C 108.006 121.973,107.723 121.908,106.159 121.188 C 105.062 120.683,103.819 120.291,102.588 120.064 C 99.771 119.542,99.697 119.340,99.587 111.810 C 99.501 105.902,100.039 105.193,103.442 106.725 C 104.025 106.988,104.959 107.339,105.517 107.504 C 106.075 107.670,106.926 108.058,107.409 108.368 C 108.283 108.928,108.914 109.120,111.216 109.525 C 111.885 109.643,112.870 109.982,113.406 110.277 C 115.972 111.693,130.709 111.820,131.451 110.434 C 131.563 110.226,132.224 109.799,132.922 109.486 C 134.390 108.827,135.626 107.627,136.318 106.190 C 136.570 105.667,136.966 104.995,137.198 104.699 C 137.849 103.866,137.802 97.858,137.135 96.567 C 136.893 96.098,136.420 94.986,136.084 94.095 C 135.643 92.924,135.346 92.412,135.011 92.245 C 134.756 92.118,134.428 91.775,134.283 91.483 C 133.925 90.768,133.319 90.095,133.033 90.095 C 132.904 90.095,132.388 89.667,131.886 89.143 C 131.384 88.619,130.827 88.190,130.647 88.190 C 130.468 88.190,129.846 87.804,129.265 87.331 C 128.685 86.858,127.808 86.299,127.317 86.088 C 126.827 85.878,126.115 85.464,125.736 85.168 C 125.358 84.872,124.363 84.355,123.527 84.020 C 122.691 83.686,121.833 83.248,121.620 83.048 C 121.407 82.848,120.906 82.548,120.507 82.382 C 120.108 82.215,119.338 81.766,118.796 81.385 C 118.253 81.003,117.381 80.529,116.857 80.331 C 116.333 80.133,115.648 79.740,115.333 79.458 C 114.513 78.720,113.635 78.134,112.711 77.705 C 108.610 75.806,102.664 69.504,101.815 66.156 C 101.634 65.442,101.313 64.528,101.102 64.126 C 99.571 61.208,99.593 51.736,101.136 49.775 C 101.349 49.504,101.524 49.168,101.524 49.029 C 101.524 48.509,102.333 46.641,102.941 45.757 C 103.287 45.253,103.757 44.477,103.984 44.032 C 104.211 43.587,104.607 43.127,104.864 43.010 C 105.121 42.893,105.498 42.514,105.703 42.167 C 105.907 41.821,106.366 41.416,106.723 41.267 C 107.080 41.117,107.566 40.723,107.803 40.391 C 108.045 40.050,108.661 39.595,109.212 39.349 C 109.750 39.109,110.360 38.722,110.567 38.489 C 110.988 38.015,112.149 37.446,113.113 37.241 C 113.464 37.166,114.407 36.805,115.209 36.439 C 117.029 35.608,119.301 35.103,122.218 34.881 C 123.460 34.787,124.819 34.577,125.238 34.414 C 126.613 33.880,129.214 33.726,130.477 34.103 M21.842 37.015 C 22.818 37.520,23.306 38.357,23.159 39.276 C 23.091 39.701,23.039 57.675,23.044 79.218 C 23.055 121.974,23.112 119.717,21.989 120.773 C 21.495 121.237,21.484 121.238,16.319 121.334 L 11.143 121.430 10.703 120.953 C 9.709 119.875,9.735 120.283,9.745 105.889 C 9.751 96.619,9.689 92.271,9.543 91.811 C 9.206 90.741,9.263 57.148,9.607 54.190 C 9.803 52.507,9.855 50.074,9.805 44.952 C 9.729 37.280,9.715 37.384,10.919 36.838 C 11.840 36.421,20.980 36.568,21.842 37.015 M74.145 36.927 C 77.526 37.216,80.111 37.742,81.617 38.447 C 82.277 38.756,83.319 39.155,83.932 39.333 C 84.659 39.544,85.317 39.906,85.825 40.375 C 86.253 40.769,86.939 41.203,87.349 41.338 C 88.380 41.676,90.579 43.895,90.963 44.982 C 91.123 45.436,91.508 46.070,91.818 46.390 C 92.195 46.778,92.574 47.563,92.958 48.748 C 93.274 49.725,93.698 50.732,93.899 50.988 C 94.600 51.880,94.753 53.328,94.746 59.048 C 94.739 64.810,94.680 65.281,93.778 66.715 C 93.530 67.108,93.193 68.051,93.028 68.810 C 92.509 71.200,92.369 71.631,91.985 72.015 C 91.619 72.381,90.476 74.683,90.476 75.054 C 90.476 75.156,90.254 75.433,89.981 75.668 C 89.709 75.903,89.314 76.438,89.104 76.857 C 88.767 77.526,88.053 78.356,86.518 79.860 C 86.279 80.094,85.722 80.646,85.280 81.087 C 84.838 81.528,84.053 82.067,83.536 82.286 C 83.019 82.505,82.477 82.852,82.333 83.059 C 82.016 83.510,80.956 84.072,79.865 84.366 C 79.425 84.485,78.812 84.795,78.502 85.055 C 77.767 85.674,76.830 85.990,74.895 86.270 C 73.935 86.410,72.552 86.808,71.372 87.284 L 69.429 88.068 63.383 88.153 L 57.337 88.239 56.884 88.692 C 56.201 89.375,56.195 89.520,56.193 104.733 L 56.190 118.895 54.910 120.326 L 53.629 121.757 52.672 121.609 C 52.145 121.528,49.862 121.442,47.599 121.419 C 42.400 121.365,41.838 121.051,41.833 118.190 C 41.832 117.562,41.854 99.307,41.883 77.623 C 41.939 34.646,41.861 37.604,42.965 36.935 C 43.547 36.582,70.042 36.575,74.145 36.927 M59.162 46.824 C 56.217 47.378,56.249 47.190,56.169 64.518 L 56.113 76.632 56.572 76.935 C 56.950 77.184,57.559 77.231,59.992 77.199 C 64.584 77.139,65.564 77.015,66.519 76.372 C 67.036 76.023,67.982 75.674,69.110 75.416 C 70.430 75.114,71.048 74.868,71.513 74.460 C 71.857 74.158,72.787 73.603,73.578 73.227 C 74.551 72.765,75.159 72.337,75.453 71.909 C 75.692 71.560,76.123 71.135,76.411 70.965 C 77.107 70.554,77.590 69.834,77.991 68.611 C 78.173 68.057,78.558 67.344,78.847 67.027 C 80.576 65.135,80.565 56.716,78.831 54.712 C 78.535 54.370,78.151 53.813,77.977 53.474 C 77.578 52.694,74.961 50.095,74.576 50.095 C 74.417 50.095,73.965 49.807,73.572 49.455 C 72.836 48.795,72.529 48.666,70.095 47.988 C 69.310 47.769,68.067 47.419,67.333 47.210 C 66.600 47.002,65.229 46.799,64.286 46.760 C 63.343 46.721,62.186 46.647,61.714 46.597 C 61.243 46.547,60.094 46.649,59.162 46.824 M196.286 48.592 C 195.660 48.711,190.905 48.741,178.271 48.707 C 176.709 48.703,176.279 48.866,175.826 49.634 L 175.422 50.318 175.439 80.471 C 175.458 113.668,175.374 111.350,176.580 112.233 C 177.047 112.575,177.978 112.587,202.390 112.581 L 227.714 112.575 228.125 112.069 C 228.581 111.507,228.762 110.819,228.763 109.643 C 228.763 109.211,228.893 108.115,229.052 107.208 C 229.530 104.472,229.353 96.742,228.788 95.689 C 228.482 95.117,228.212 94.871,227.806 94.790 C 226.493 94.527,203.526 94.663,202.463 94.940 C 201.214 95.265,200.684 95.079,199.563 93.922 C 198.441 92.765,198.476 93.486,198.476 71.357 C 198.476 47.174,198.571 48.157,196.286 48.592 M315.436 48.550 C 314.691 48.757,314.705 48.136,314.694 80.190 C 314.684 107.546,314.742 112.139,315.097 112.494 C 315.282 112.679,354.360 112.562,355.143 112.374 C 355.562 112.274,356.890 112.112,358.095 112.016 C 359.300 111.919,361.100 111.699,362.095 111.527 C 363.090 111.354,364.570 111.097,365.383 110.955 C 366.468 110.766,367.073 110.541,367.658 110.110 C 368.097 109.788,368.589 109.520,368.752 109.516 C 369.736 109.489,374.286 105.303,374.286 104.424 C 374.286 104.311,374.486 103.977,374.731 103.681 C 376.281 101.810,376.295 90.431,374.751 88.762 C 374.508 88.500,374.138 87.883,373.928 87.392 C 373.671 86.790,373.348 86.395,372.940 86.184 C 372.606 86.011,371.963 85.514,371.509 85.078 C 370.571 84.175,369.220 83.024,368.840 82.804 C 368.699 82.722,367.794 82.486,366.828 82.279 C 362.870 81.434,363.468 78.387,367.785 77.406 C 369.202 77.084,370.095 76.566,370.095 76.067 C 370.095 75.931,370.374 75.679,370.714 75.507 C 371.547 75.087,372.381 74.285,372.381 73.905 C 372.381 73.735,372.633 73.409,372.942 73.181 C 373.503 72.766,373.585 72.562,374.377 69.619 C 374.547 68.990,374.807 68.045,374.957 67.518 C 375.482 65.665,375.416 61.605,374.842 60.380 C 374.571 59.804,374.200 58.721,374.017 57.975 C 373.702 56.690,371.975 54.095,371.435 54.095 C 371.349 54.095,370.856 53.715,370.339 53.249 C 369.821 52.784,369.019 52.257,368.556 52.078 C 368.093 51.899,367.457 51.563,367.143 51.333 C 365.826 50.367,365.299 50.226,362.095 49.983 C 361.148 49.911,359.883 49.656,359.048 49.368 L 357.619 48.876 337.048 48.770 C 325.733 48.712,316.348 48.609,316.190 48.542 C 316.033 48.475,315.694 48.478,315.436 48.550 M255.133 48.784 C 253.459 48.989,253.122 49.376,252.746 51.533 C 252.583 52.471,252.355 53.016,251.850 53.677 C 251.290 54.412,251.134 54.827,250.947 56.092 C 250.721 57.618,250.183 59.068,249.499 59.993 C 249.281 60.288,249.031 61.165,248.872 62.194 C 248.571 64.142,248.149 65.433,247.630 65.995 C 247.420 66.222,247.105 67.162,246.865 68.280 C 246.640 69.325,246.335 70.397,246.187 70.661 C 245.435 72.004,245.143 72.812,244.856 74.349 C 244.614 75.650,244.377 76.289,243.813 77.161 C 243.313 77.934,243.042 78.606,242.955 79.288 C 242.741 80.956,242.487 81.689,241.885 82.374 C 241.426 82.897,241.236 83.401,240.937 84.887 C 240.713 86.002,240.346 87.131,240.022 87.707 C 239.456 88.711,239.044 89.983,238.662 91.905 C 238.537 92.533,238.150 93.562,237.803 94.190 C 237.446 94.836,237.076 95.872,236.953 96.571 C 236.681 98.122,236.346 99.132,235.637 100.536 C 235.319 101.165,234.942 102.395,234.757 103.402 C 234.537 104.595,234.295 105.331,234.006 105.678 C 233.348 106.469,233.192 106.861,233.043 108.095 C 232.967 108.724,232.751 109.650,232.562 110.154 C 232.136 111.291,232.422 112.254,233.248 112.462 C 233.522 112.531,238.233 112.571,243.716 112.552 L 253.685 112.518 254.668 110.497 C 255.489 108.808,255.708 108.123,256.002 106.322 C 256.332 104.297,256.516 103.795,257.097 103.333 C 257.228 103.229,257.454 102.543,257.598 101.810 C 258.380 97.824,258.124 97.905,270.022 97.905 C 280.953 97.905,280.555 97.789,280.994 101.100 C 281.167 102.410,281.268 102.658,281.913 103.361 C 282.472 103.970,282.664 104.361,282.753 105.075 C 283.024 107.233,283.267 108.135,283.771 108.857 C 284.063 109.276,284.452 110.178,284.636 110.861 C 284.820 111.544,285.039 112.214,285.123 112.349 C 285.282 112.607,307.065 112.699,307.728 112.445 C 308.728 112.061,308.045 108.046,306.647 106.095 C 306.460 105.833,306.175 104.966,306.014 104.167 C 305.656 102.393,305.557 102.104,305.138 101.619 C 304.780 101.203,304.203 99.519,303.703 97.429 C 303.527 96.695,303.279 95.967,303.152 95.810 C 302.557 95.074,302.024 93.334,301.622 90.815 C 301.560 90.425,301.302 89.861,301.050 89.562 C 300.423 88.816,300.025 87.617,299.809 85.822 C 299.645 84.455,299.562 84.243,298.937 83.603 C 298.340 82.992,298.200 82.666,297.908 81.207 C 297.710 80.219,297.290 78.964,296.897 78.187 C 296.528 77.456,296.127 76.343,296.005 75.714 C 295.687 74.077,295.662 74.011,295.045 73.235 C 294.737 72.848,294.434 72.219,294.371 71.837 C 294.036 69.814,293.591 68.326,292.925 67.004 C 292.465 66.090,292.046 64.863,291.820 63.766 C 291.413 61.790,291.241 61.325,290.579 60.419 C 290.277 60.005,290.083 59.420,290.011 58.705 C 289.824 56.842,289.536 55.965,288.871 55.228 C 288.320 54.619,288.189 54.269,287.902 52.643 C 287.554 50.677,286.454 49.113,285.238 48.855 C 284.616 48.724,256.181 48.656,255.133 48.784 M347.473 59.980 C 348.073 60.214,348.612 60.483,348.671 60.579 C 348.730 60.674,349.108 60.840,349.511 60.949 C 349.950 61.067,350.377 61.350,350.575 61.652 C 350.758 61.930,351.223 62.508,351.610 62.936 C 353.132 64.620,353.174 69.844,351.672 70.506 C 351.590 70.542,351.288 70.888,350.999 71.274 C 349.627 73.112,346.733 73.904,341.333 73.921 C 335.725 73.938,335.721 73.933,335.844 65.912 C 335.948 59.094,335.825 59.204,343.048 59.444 C 345.873 59.538,346.547 59.620,347.473 59.980 M270.095 62.500 C 270.095 62.611,270.257 62.907,270.455 63.159 C 270.652 63.410,270.874 63.937,270.948 64.329 C 271.029 64.762,271.368 65.353,271.812 65.834 C 272.369 66.439,272.572 66.845,272.670 67.551 C 272.936 69.477,273.351 70.905,273.822 71.523 C 274.149 71.952,274.425 72.727,274.660 73.873 C 275.103 76.035,275.206 76.360,275.648 76.987 C 276.224 77.806,276.562 78.981,276.778 80.917 C 277.160 84.340,277.356 84.249,269.693 84.218 C 263.830 84.195,263.140 84.125,262.429 83.481 C 261.848 82.955,262.129 80.216,262.859 79.288 C 263.285 78.746,263.909 76.778,264.090 75.406 C 264.154 74.922,264.384 74.193,264.602 73.787 C 265.582 71.954,265.726 71.539,265.988 69.795 C 266.232 68.171,266.339 67.868,266.859 67.331 C 267.352 66.823,267.486 66.483,267.652 65.312 C 267.857 63.869,268.497 62.453,269.094 62.119 C 269.453 61.918,270.095 62.163,270.095 62.500 M348.857 86.590 C 350.233 87.264,350.868 87.692,351.143 88.128 C 351.352 88.460,351.712 88.821,351.942 88.929 C 352.885 89.372,353.048 89.962,353.048 92.944 C 353.048 96.241,352.999 96.367,350.948 98.392 L 349.560 99.761 347.875 100.084 C 344.937 100.648,338.762 100.861,337.625 100.439 C 335.975 99.827,335.918 99.616,335.837 93.817 C 335.715 85.221,335.501 85.494,342.286 85.590 L 346.952 85.656 348.857 86.590 " stroke="none" fill="#fbfbfb" fill-rule="evenodd"></path><path id="path2" d="M0.000 95.238 C 0.000 158.603,0.064 190.476,0.190 190.476 C 0.317 190.476,0.381 158.603,0.381 95.238 C 0.381 31.873,0.317 0.000,0.190 0.000 C 0.064 0.000,0.000 31.873,0.000 95.238 M123.905 36.430 C 121.527 36.565,120.968 36.654,120.571 36.961 C 119.612 37.706,119.041 37.903,117.112 38.153 C 115.016 38.425,114.414 38.642,114.095 39.238 C 113.967 39.478,113.404 39.755,112.519 40.014 C 111.531 40.304,110.982 40.590,110.571 41.029 C 110.257 41.366,109.635 41.884,109.189 42.181 C 108.743 42.478,108.057 43.066,107.665 43.488 C 107.273 43.911,106.547 44.685,106.052 45.209 C 105.500 45.793,105.031 46.524,104.840 47.098 C 104.669 47.613,104.292 48.246,104.001 48.505 C 102.932 49.458,102.767 50.534,102.764 56.571 C 102.762 62.880,102.927 64.163,103.895 65.321 C 104.230 65.722,104.694 66.571,104.926 67.208 C 105.158 67.844,105.541 68.518,105.777 68.706 C 106.014 68.894,106.477 69.442,106.807 69.923 C 107.137 70.405,107.621 70.939,107.883 71.111 C 108.145 71.282,108.617 71.798,108.933 72.257 C 109.340 72.848,109.682 73.127,110.108 73.212 C 110.439 73.278,110.979 73.623,111.307 73.978 C 111.893 74.610,113.209 75.429,113.641 75.429 C 113.761 75.429,114.175 75.814,114.561 76.286 C 114.948 76.757,115.408 77.144,115.584 77.146 C 115.899 77.149,116.569 77.518,118.025 78.493 C 118.431 78.763,119.153 79.117,119.632 79.279 C 120.110 79.440,120.967 79.927,121.537 80.360 C 122.106 80.793,122.871 81.233,123.238 81.338 C 123.605 81.442,124.265 81.859,124.705 82.265 C 125.203 82.723,125.779 83.052,126.229 83.134 C 126.998 83.275,128.571 84.101,128.571 84.363 C 128.571 84.450,129.152 84.780,129.862 85.097 C 130.635 85.443,131.249 85.855,131.394 86.125 C 131.526 86.373,132.109 86.832,132.687 87.145 C 133.287 87.470,134.149 88.185,134.692 88.810 C 135.216 89.412,135.752 89.905,135.883 89.905 C 136.013 89.905,136.316 90.254,136.556 90.680 C 136.796 91.106,137.300 91.764,137.677 92.141 C 140.358 94.821,140.524 105.397,137.930 108.189 C 137.549 108.598,137.084 109.152,136.895 109.420 C 136.706 109.688,136.192 110.090,135.752 110.314 C 135.312 110.538,134.589 111.040,134.145 111.430 C 133.425 112.063,131.705 112.762,130.869 112.762 C 130.732 112.762,129.966 113.057,129.167 113.417 C 127.859 114.007,127.544 114.073,126.000 114.074 C 123.016 114.076,117.462 113.698,116.571 113.432 C 114.686 112.870,111.102 112.012,109.380 111.710 C 109.039 111.650,108.611 111.444,108.428 111.252 C 108.245 111.059,107.324 110.668,106.381 110.383 C 105.438 110.097,104.333 109.693,103.925 109.485 C 102.469 108.743,101.433 109.937,101.991 111.713 C 102.252 112.541,102.267 112.858,102.082 113.594 C 101.621 115.425,102.873 118.476,104.086 118.476 C 104.420 118.476,105.115 118.601,105.632 118.753 C 107.170 119.205,109.580 119.688,110.159 119.659 C 110.456 119.644,111.271 119.765,111.969 119.928 C 115.398 120.729,125.870 121.013,126.907 120.333 C 127.186 120.150,127.688 120.000,128.022 120.000 C 129.118 120.000,135.048 118.793,135.690 118.438 C 135.938 118.302,136.496 117.995,136.931 117.756 C 137.365 117.518,138.156 117.240,138.688 117.139 C 139.409 117.002,139.885 116.749,140.558 116.144 C 141.055 115.698,141.843 115.144,142.309 114.912 C 142.775 114.680,143.348 114.231,143.582 113.913 C 143.817 113.596,144.346 113.165,144.758 112.955 C 145.350 112.652,145.532 112.434,145.631 111.908 C 145.720 111.433,145.937 111.132,146.392 110.850 C 147.013 110.466,147.996 108.743,148.003 108.025 C 148.005 107.854,148.217 107.371,148.475 106.952 C 149.416 105.425,149.580 104.865,149.790 102.476 C 150.157 98.313,149.731 92.677,148.969 91.615 C 148.780 91.351,148.391 90.451,148.106 89.615 C 147.778 88.654,147.271 87.683,146.726 86.974 C 146.252 86.357,145.759 85.602,145.630 85.295 C 145.501 84.989,145.128 84.576,144.801 84.377 C 144.474 84.178,144.026 83.662,143.806 83.231 C 143.546 82.721,143.188 82.356,142.783 82.187 C 142.440 82.044,141.952 81.622,141.699 81.250 C 141.436 80.864,140.969 80.483,140.612 80.365 C 140.268 80.250,139.801 79.905,139.574 79.598 C 139.347 79.291,138.695 78.827,138.125 78.566 C 137.556 78.305,136.810 77.795,136.468 77.432 C 136.125 77.070,135.357 76.557,134.760 76.293 C 134.163 76.029,133.275 75.520,132.786 75.161 C 132.297 74.802,131.534 74.363,131.091 74.186 C 130.647 74.008,130.071 73.610,129.811 73.300 C 129.486 72.914,128.886 72.585,127.902 72.254 C 126.782 71.878,126.407 71.656,126.195 71.246 C 125.905 70.685,125.315 70.381,124.109 70.171 C 123.625 70.086,123.079 69.780,122.564 69.306 C 122.125 68.902,121.680 68.571,121.574 68.571 C 121.202 68.571,119.704 67.809,118.762 67.140 C 118.238 66.768,117.492 66.254,117.103 65.997 C 116.715 65.740,116.304 65.355,116.190 65.143 C 116.077 64.930,115.638 64.538,115.215 64.271 C 114.758 63.983,114.334 63.515,114.167 63.116 C 114.013 62.747,113.503 61.918,113.034 61.274 C 111.845 59.640,111.731 59.103,111.722 55.143 C 111.713 51.177,111.905 50.171,112.766 49.677 C 113.069 49.503,113.452 49.033,113.617 48.633 C 113.928 47.876,116.468 45.339,116.917 45.335 C 117.273 45.333,119.050 44.567,119.639 44.163 C 120.805 43.363,124.332 42.998,128.476 43.247 C 132.845 43.511,133.125 43.555,134.286 44.159 C 135.485 44.784,136.636 45.072,138.657 45.253 C 139.899 45.364,140.148 45.452,140.657 45.961 C 141.347 46.651,142.539 47.048,143.921 47.048 C 145.356 47.048,145.594 46.759,145.153 45.551 C 144.794 44.570,144.857 42.738,145.296 41.383 C 145.745 39.996,143.954 38.649,141.048 38.189 C 139.057 37.873,138.006 37.589,137.524 37.236 C 136.862 36.751,136.006 36.525,134.571 36.458 C 131.007 36.292,126.568 36.280,123.905 36.430 M11.810 38.419 C 11.548 38.472,11.279 38.602,11.212 38.710 C 10.967 39.104,11.169 117.024,11.417 117.775 C 11.768 118.838,12.990 119.137,16.393 118.992 C 19.420 118.862,19.794 118.732,20.240 117.655 C 20.701 116.541,20.761 39.380,20.301 38.751 C 20.033 38.384,13.300 38.121,11.810 38.419 M45.000 38.511 C 44.764 38.629,44.570 38.776,44.569 38.839 C 44.568 38.901,44.537 41.610,44.500 44.857 C 44.435 50.515,44.414 50.810,43.986 51.905 L 43.539 53.048 43.480 76.093 C 43.423 98.360,43.433 99.168,43.782 99.998 C 44.757 102.316,44.863 110.645,43.943 112.642 C 43.417 113.786,43.233 116.590,43.598 117.902 C 43.816 118.683,48.928 119.284,52.093 118.900 C 53.900 118.681,53.773 119.879,53.792 102.958 C 53.812 86.519,53.716 87.609,55.195 87.000 C 56.797 86.340,57.189 86.283,62.571 85.925 C 65.251 85.746,66.022 85.661,71.810 84.908 C 74.665 84.537,75.009 84.451,75.568 83.972 C 76.216 83.418,77.029 83.136,78.516 82.949 C 79.270 82.854,79.508 82.716,80.008 82.085 C 80.336 81.671,80.746 81.333,80.921 81.332 C 81.510 81.331,85.524 78.314,85.524 77.873 C 85.524 77.781,85.867 77.334,86.286 76.879 C 86.705 76.425,87.048 75.992,87.048 75.918 C 87.048 75.845,87.252 75.511,87.502 75.178 C 87.751 74.844,88.013 74.383,88.083 74.153 C 88.153 73.922,88.375 73.681,88.576 73.618 C 89.167 73.430,89.661 72.643,89.798 71.669 C 89.998 70.244,90.255 69.614,90.853 69.081 C 91.176 68.793,91.449 68.325,91.506 67.960 C 92.494 61.590,92.797 57.452,92.383 56.006 C 92.279 55.645,92.101 54.402,91.987 53.246 C 91.777 51.116,91.346 49.333,91.040 49.333 C 90.810 49.333,89.961 47.840,89.795 47.143 C 89.677 46.647,88.923 45.645,87.645 44.286 C 86.835 43.424,85.267 42.285,84.885 42.282 C 84.246 42.275,82.802 41.551,82.381 41.027 C 81.970 40.515,80.958 40.202,79.687 40.195 C 78.570 40.189,75.991 39.639,75.444 39.290 C 74.166 38.476,46.488 37.767,45.000 38.511 M68.286 45.106 C 70.241 45.323,70.945 45.548,71.210 46.043 C 71.387 46.374,72.273 46.742,74.059 47.228 C 74.511 47.350,75.197 47.730,75.583 48.072 C 75.970 48.413,76.687 48.976,77.178 49.322 C 78.555 50.294,80.832 53.254,81.237 54.600 C 81.372 55.048,81.614 55.546,81.775 55.707 C 83.150 57.082,83.104 63.466,81.708 65.048 C 81.523 65.257,81.269 65.943,81.144 66.571 C 80.859 67.999,80.308 69.285,79.714 69.905 C 79.463 70.167,79.124 70.702,78.960 71.094 C 78.779 71.528,78.373 71.990,77.923 72.274 C 77.517 72.531,77.025 73.066,76.830 73.465 C 76.616 73.904,76.217 74.320,75.820 74.518 C 75.460 74.698,75.090 74.978,75.000 75.140 C 74.909 75.302,74.218 75.744,73.465 76.122 C 72.712 76.500,71.881 76.952,71.619 77.126 C 71.357 77.300,70.286 77.708,69.238 78.033 C 62.531 80.111,56.754 80.302,54.735 78.514 L 53.810 77.694 53.783 65.371 C 53.743 46.396,53.744 46.384,55.516 45.479 C 56.828 44.810,63.781 44.606,68.286 45.106 " stroke="none" fill="#4c4b51" fill-rule="evenodd"></path><path id="path3" d="M0.475 95.238 C 0.475 147.671,0.497 169.121,0.524 142.905 C 0.550 116.688,0.550 73.788,0.524 47.571 C 0.497 21.355,0.475 42.805,0.475 95.238 M125.048 35.437 C 124.524 35.519,123.409 35.593,122.571 35.602 C 121.000 35.620,119.250 36.024,117.714 36.724 C 117.243 36.939,116.291 37.243,115.599 37.400 C 113.681 37.835,109.969 39.695,108.785 40.813 C 108.405 41.171,107.795 41.668,107.429 41.917 C 107.062 42.167,106.596 42.579,106.392 42.833 C 106.189 43.087,105.718 43.609,105.345 43.991 C 104.754 44.597,104.221 45.458,102.820 48.065 C 102.642 48.396,102.314 49.310,102.090 50.095 C 101.867 50.881,101.554 51.867,101.395 52.286 C 101.032 53.239,100.838 58.317,101.107 59.810 C 101.493 61.955,102.480 65.401,102.926 66.164 C 103.179 66.598,103.712 67.583,104.109 68.355 C 105.214 70.499,109.751 74.966,111.658 75.787 C 112.108 75.980,112.911 76.483,113.442 76.904 C 113.973 77.325,114.702 77.820,115.061 78.004 C 115.420 78.189,115.971 78.554,116.286 78.817 C 116.600 79.080,117.414 79.546,118.094 79.851 C 118.775 80.157,119.589 80.603,119.904 80.843 C 120.219 81.083,121.033 81.560,121.714 81.903 C 122.395 82.246,123.295 82.760,123.714 83.045 C 124.133 83.331,124.800 83.669,125.195 83.798 C 125.591 83.927,126.148 84.228,126.433 84.468 C 126.719 84.707,127.567 85.211,128.319 85.589 C 129.071 85.967,129.745 86.372,129.818 86.490 C 129.891 86.608,130.561 87.099,131.308 87.582 C 132.940 88.638,136.058 91.761,136.669 92.952 C 136.910 93.424,137.330 94.238,137.601 94.762 C 139.263 97.975,138.783 104.616,136.673 107.619 C 136.415 107.986,136.068 108.480,135.901 108.716 C 135.735 108.953,135.153 109.371,134.609 109.646 C 134.064 109.920,133.136 110.482,132.545 110.894 C 131.658 111.514,131.228 111.676,130.069 111.828 C 129.298 111.930,128.109 112.134,127.427 112.284 C 125.768 112.647,123.939 112.689,121.524 112.418 C 120.424 112.295,118.197 112.056,116.575 111.887 C 114.309 111.651,113.317 111.458,112.289 111.050 C 111.554 110.759,110.267 110.334,109.429 110.107 C 107.442 109.568,107.085 109.434,105.048 108.469 C 100.745 106.429,100.348 106.858,100.554 113.333 C 100.728 118.823,100.907 119.112,104.479 119.682 C 105.524 119.849,106.718 120.196,107.527 120.569 C 108.606 121.067,109.235 121.215,110.857 121.353 C 111.957 121.447,113.714 121.605,114.762 121.705 C 120.943 122.294,130.342 121.674,133.104 120.494 C 133.911 120.150,135.171 119.759,135.905 119.627 C 136.638 119.494,137.624 119.163,138.095 118.891 C 138.567 118.619,139.510 118.109,140.190 117.758 C 140.871 117.408,141.643 116.922,141.905 116.679 C 142.167 116.435,142.765 115.998,143.234 115.707 C 143.704 115.416,144.241 114.983,144.428 114.745 C 144.615 114.508,145.062 114.131,145.422 113.909 C 145.781 113.687,146.129 113.335,146.195 113.128 C 146.261 112.921,146.715 112.333,147.205 111.822 C 149.189 109.752,150.057 107.860,150.655 104.305 C 150.857 103.110,151.123 101.792,151.248 101.376 C 152.004 98.854,150.589 90.586,148.995 88.214 C 148.600 87.625,148.169 86.899,148.039 86.602 C 147.421 85.190,140.229 77.905,139.453 77.905 C 139.343 77.905,138.771 77.512,138.182 77.033 C 137.593 76.553,136.583 75.922,135.937 75.630 C 135.291 75.338,134.590 74.904,134.381 74.665 C 134.171 74.425,133.400 73.952,132.667 73.613 C 131.933 73.275,131.000 72.730,130.593 72.403 C 130.186 72.077,129.735 71.810,129.592 71.810 C 129.271 71.810,128.370 71.328,127.238 70.552 C 126.767 70.228,125.973 69.827,125.474 69.659 C 124.975 69.492,124.196 69.051,123.743 68.680 C 123.290 68.309,122.547 67.874,122.092 67.713 C 121.637 67.552,120.964 67.187,120.597 66.901 C 120.230 66.615,119.697 66.252,119.412 66.095 C 119.127 65.938,118.354 65.338,117.694 64.762 C 113.565 61.158,111.845 57.314,112.662 53.520 C 113.578 49.267,116.423 46.395,120.698 45.405 C 121.833 45.143,123.326 44.762,124.015 44.559 C 125.433 44.141,128.874 44.283,130.385 44.822 C 130.806 44.972,131.620 45.154,132.194 45.227 C 132.768 45.299,134.010 45.519,134.952 45.716 C 135.895 45.913,137.267 46.169,138.000 46.285 C 138.843 46.418,139.589 46.671,140.027 46.974 C 140.523 47.316,144.903 48.762,145.442 48.762 C 146.360 48.762,146.556 39.061,145.654 38.315 C 145.530 38.213,144.486 37.868,143.333 37.549 C 142.181 37.229,140.635 36.760,139.898 36.506 C 137.239 35.588,128.239 34.940,125.048 35.437 M134.571 36.458 C 136.006 36.525,136.862 36.751,137.524 37.236 C 138.006 37.589,139.057 37.873,141.048 38.189 C 143.954 38.649,145.745 39.996,145.296 41.383 C 144.857 42.738,144.794 44.570,145.153 45.551 C 145.594 46.759,145.356 47.048,143.921 47.048 C 142.539 47.048,141.347 46.651,140.657 45.961 C 140.148 45.452,139.899 45.364,138.657 45.253 C 136.636 45.072,135.485 44.784,134.286 44.159 C 133.125 43.555,132.845 43.511,128.476 43.247 C 124.332 42.998,120.805 43.363,119.639 44.163 C 119.050 44.567,117.273 45.333,116.917 45.335 C 116.468 45.339,113.928 47.876,113.617 48.633 C 113.452 49.033,113.069 49.503,112.766 49.677 C 111.905 50.171,111.713 51.177,111.722 55.143 C 111.731 59.103,111.845 59.640,113.034 61.274 C 113.503 61.918,114.013 62.747,114.167 63.116 C 114.334 63.515,114.758 63.983,115.215 64.271 C 115.638 64.538,116.077 64.930,116.190 65.143 C 116.304 65.355,116.715 65.740,117.103 65.997 C 117.492 66.254,118.238 66.768,118.762 67.140 C 119.704 67.809,121.202 68.571,121.574 68.571 C 121.680 68.571,122.125 68.902,122.564 69.306 C 123.079 69.780,123.625 70.086,124.109 70.171 C 125.315 70.381,125.905 70.685,126.195 71.246 C 126.407 71.656,126.782 71.878,127.902 72.254 C 128.886 72.585,129.486 72.914,129.811 73.300 C 130.071 73.610,130.647 74.008,131.091 74.186 C 131.534 74.363,132.297 74.802,132.786 75.161 C 133.275 75.520,134.163 76.029,134.760 76.293 C 135.357 76.557,136.125 77.070,136.468 77.432 C 136.810 77.795,137.556 78.305,138.125 78.566 C 138.695 78.827,139.347 79.291,139.574 79.598 C 139.801 79.905,140.268 80.250,140.612 80.365 C 140.969 80.483,141.436 80.864,141.699 81.250 C 141.952 81.622,142.440 82.044,142.783 82.187 C 143.188 82.356,143.546 82.721,143.806 83.231 C 144.026 83.662,144.474 84.178,144.801 84.377 C 145.128 84.576,145.501 84.989,145.630 85.295 C 145.759 85.602,146.252 86.357,146.726 86.974 C 147.271 87.683,147.778 88.654,148.106 89.615 C 148.391 90.451,148.780 91.351,148.969 91.615 C 149.731 92.677,150.157 98.313,149.790 102.476 C 149.580 104.865,149.416 105.425,148.475 106.952 C 148.217 107.371,148.005 107.854,148.003 108.025 C 147.996 108.743,147.013 110.466,146.392 110.850 C 145.937 111.132,145.720 111.433,145.631 111.908 C 145.532 112.434,145.350 112.652,144.758 112.955 C 144.346 113.165,143.817 113.596,143.582 113.913 C 143.348 114.231,142.775 114.680,142.309 114.912 C 141.843 115.144,141.055 115.698,140.558 116.144 C 139.885 116.749,139.409 117.002,138.688 117.139 C 138.156 117.240,137.365 117.518,136.931 117.756 C 136.496 117.995,135.938 118.302,135.690 118.438 C 135.048 118.793,129.118 120.000,128.022 120.000 C 127.688 120.000,127.186 120.150,126.907 120.333 C 125.870 121.013,115.398 120.729,111.969 119.928 C 111.271 119.765,110.456 119.644,110.159 119.659 C 109.580 119.688,107.170 119.205,105.632 118.753 C 105.115 118.601,104.420 118.476,104.086 118.476 C 102.873 118.476,101.621 115.425,102.082 113.594 C 102.267 112.858,102.252 112.541,101.991 111.713 C 101.433 109.937,102.469 108.743,103.925 109.485 C 104.333 109.693,105.438 110.097,106.381 110.383 C 107.324 110.668,108.245 111.059,108.428 111.252 C 108.611 111.444,109.039 111.650,109.380 111.710 C 111.102 112.012,114.686 112.870,116.571 113.432 C 117.462 113.698,123.016 114.076,126.000 114.074 C 127.544 114.073,127.859 114.007,129.167 113.417 C 129.966 113.057,130.732 112.762,130.869 112.762 C 131.705 112.762,133.425 112.063,134.145 111.430 C 134.589 111.040,135.312 110.538,135.752 110.314 C 136.192 110.090,136.706 109.688,136.895 109.420 C 137.084 109.152,137.549 108.598,137.930 108.189 C 140.524 105.397,140.358 94.821,137.677 92.141 C 137.300 91.764,136.796 91.106,136.556 90.680 C 136.316 90.254,136.013 89.905,135.883 89.905 C 135.752 89.905,135.216 89.412,134.692 88.810 C 134.149 88.185,133.287 87.470,132.687 87.145 C 132.109 86.832,131.526 86.373,131.394 86.125 C 131.249 85.855,130.635 85.443,129.862 85.097 C 129.152 84.780,128.571 84.450,128.571 84.363 C 128.571 84.101,126.998 83.275,126.229 83.134 C 125.779 83.052,125.203 82.723,124.705 82.265 C 124.265 81.859,123.605 81.442,123.238 81.338 C 122.871 81.233,122.106 80.793,121.537 80.360 C 120.967 79.927,120.110 79.440,119.632 79.279 C 119.153 79.117,118.431 78.763,118.025 78.493 C 116.569 77.518,115.899 77.149,115.584 77.146 C 115.408 77.144,114.948 76.757,114.561 76.286 C 114.175 75.814,113.761 75.429,113.641 75.429 C 113.209 75.429,111.893 74.610,111.307 73.978 C 110.979 73.623,110.439 73.278,110.108 73.212 C 109.682 73.127,109.340 72.848,108.933 72.257 C 108.617 71.798,108.145 71.282,107.883 71.111 C 107.621 70.939,107.137 70.405,106.807 69.923 C 106.477 69.442,106.014 68.894,105.777 68.706 C 105.541 68.518,105.158 67.844,104.926 67.208 C 104.694 66.571,104.230 65.722,103.895 65.321 C 102.141 63.223,102.225 50.088,104.001 48.505 C 104.292 48.246,104.669 47.613,104.840 47.098 C 105.031 46.524,105.500 45.793,106.052 45.209 C 106.547 44.685,107.273 43.911,107.665 43.488 C 108.057 43.066,108.743 42.478,109.189 42.181 C 109.635 41.884,110.257 41.366,110.571 41.029 C 110.982 40.590,111.531 40.304,112.519 40.014 C 113.404 39.755,113.967 39.478,114.095 39.238 C 114.414 38.642,115.016 38.425,117.112 38.153 C 119.041 37.903,119.612 37.706,120.571 36.961 C 121.340 36.365,127.690 36.137,134.571 36.458 M10.793 37.901 C 9.896 38.807,10.081 118.738,10.982 119.638 C 11.381 120.037,11.517 120.048,15.986 120.018 C 20.810 119.986,21.322 119.913,21.797 119.189 C 22.276 118.457,22.256 38.493,21.776 38.142 C 20.765 37.403,11.486 37.199,10.793 37.901 M43.929 37.798 C 43.523 37.946,43.114 38.143,43.020 38.237 C 42.703 38.554,42.512 72.740,42.641 106.286 C 42.654 109.795,42.644 114.101,42.618 115.853 C 42.553 120.286,42.148 119.969,48.026 120.090 C 50.499 120.142,52.663 120.237,52.834 120.303 C 53.222 120.452,53.982 119.969,54.426 119.292 C 54.738 118.816,54.769 117.700,54.858 103.913 C 54.910 95.737,55.030 88.889,55.123 88.696 C 55.549 87.814,56.757 87.576,61.627 87.413 C 66.766 87.241,69.060 87.008,69.904 86.572 C 70.520 86.253,71.528 86.027,74.131 85.622 C 75.340 85.434,76.110 85.185,76.988 84.697 C 77.650 84.329,78.512 83.970,78.906 83.898 C 79.299 83.826,79.980 83.498,80.418 83.169 C 80.857 82.840,81.835 82.229,82.593 81.810 C 83.852 81.113,84.297 80.764,85.714 79.362 C 87.604 77.492,89.326 75.177,90.197 73.333 C 90.470 72.757,91.032 71.600,91.446 70.762 C 91.886 69.874,92.314 68.634,92.472 67.791 C 92.622 66.996,92.928 65.881,93.152 65.315 C 94.329 62.345,94.339 54.915,93.170 52.061 C 92.963 51.556,92.617 50.538,92.402 49.798 C 92.187 49.059,91.798 48.159,91.536 47.798 C 91.275 47.438,90.766 46.582,90.405 45.895 C 89.552 44.276,87.713 42.480,86.095 41.688 C 85.414 41.355,84.623 40.888,84.336 40.651 C 83.760 40.174,81.917 39.429,81.313 39.429 C 81.100 39.429,80.035 39.133,78.945 38.773 C 75.593 37.663,75.506 37.657,59.429 37.590 C 47.072 37.538,44.546 37.572,43.929 37.798 M20.301 38.751 C 20.761 39.380,20.701 116.541,20.240 117.655 C 19.794 118.732,19.420 118.862,16.393 118.992 C 12.990 119.137,11.768 118.838,11.417 117.775 C 11.169 117.024,10.967 39.104,11.212 38.710 C 11.569 38.135,19.879 38.172,20.301 38.751 M73.349 38.713 C 74.248 38.869,75.191 39.129,75.444 39.290 C 75.991 39.639,78.570 40.189,79.687 40.195 C 80.958 40.202,81.970 40.515,82.381 41.027 C 82.802 41.551,84.246 42.275,84.885 42.282 C 85.267 42.285,86.835 43.424,87.645 44.286 C 88.923 45.645,89.677 46.647,89.795 47.143 C 89.961 47.840,90.810 49.333,91.040 49.333 C 91.346 49.333,91.777 51.116,91.987 53.246 C 92.101 54.402,92.279 55.645,92.383 56.006 C 92.797 57.452,92.494 61.590,91.506 67.960 C 91.449 68.325,91.176 68.793,90.853 69.081 C 90.255 69.614,89.998 70.244,89.798 71.669 C 89.661 72.643,89.167 73.430,88.576 73.618 C 88.375 73.681,88.153 73.922,88.083 74.153 C 88.013 74.383,87.751 74.844,87.502 75.178 C 87.252 75.511,87.048 75.845,87.048 75.918 C 87.048 75.992,86.705 76.425,86.286 76.879 C 85.867 77.334,85.524 77.781,85.524 77.873 C 85.524 78.314,81.510 81.331,80.921 81.332 C 80.746 81.333,80.336 81.671,80.008 82.085 C 79.508 82.716,79.270 82.854,78.516 82.949 C 77.029 83.136,76.216 83.418,75.568 83.972 C 75.009 84.451,74.665 84.537,71.810 84.908 C 66.022 85.661,65.251 85.746,62.571 85.925 C 57.189 86.283,56.797 86.340,55.195 87.000 C 53.716 87.609,53.812 86.519,53.792 102.958 C 53.773 119.879,53.900 118.681,52.093 118.900 C 48.928 119.284,43.816 118.683,43.598 117.902 C 43.233 116.590,43.417 113.786,43.943 112.642 C 44.863 110.645,44.757 102.316,43.782 99.998 C 43.433 99.168,43.423 98.360,43.480 76.093 L 43.539 53.048 43.986 51.905 C 44.414 50.810,44.435 50.515,44.500 44.857 C 44.537 41.610,44.568 38.901,44.569 38.839 C 44.582 38.206,69.801 38.096,73.349 38.713 M58.087 44.949 C 56.188 45.101,55.100 45.491,54.395 46.270 C 53.867 46.853,53.751 50.474,53.783 65.371 L 53.810 77.694 54.735 78.514 C 56.754 80.302,62.531 80.111,69.238 78.033 C 70.286 77.708,71.357 77.300,71.619 77.126 C 71.881 76.952,72.712 76.500,73.465 76.122 C 74.218 75.744,74.909 75.302,75.000 75.140 C 75.090 74.978,75.460 74.698,75.820 74.518 C 76.217 74.320,76.616 73.904,76.830 73.465 C 77.025 73.066,77.517 72.531,77.923 72.274 C 78.373 71.990,78.779 71.528,78.960 71.094 C 79.124 70.702,79.463 70.167,79.714 69.905 C 80.308 69.285,80.859 67.999,81.144 66.571 C 81.269 65.943,81.523 65.257,81.708 65.048 C 83.104 63.466,83.150 57.082,81.775 55.707 C 81.614 55.546,81.372 55.048,81.237 54.600 C 80.832 53.254,78.555 50.294,77.178 49.322 C 76.687 48.976,75.970 48.413,75.583 48.072 C 75.197 47.730,74.511 47.350,74.059 47.228 C 72.273 46.742,71.387 46.374,71.210 46.043 C 70.703 45.095,63.619 44.504,58.087 44.949 M65.333 45.914 C 68.430 46.134,69.252 46.303,69.969 46.867 C 70.242 47.081,71.168 47.461,72.027 47.711 C 72.887 47.961,73.811 48.344,74.081 48.563 C 74.351 48.782,75.000 49.249,75.524 49.601 C 77.941 51.225,79.901 53.920,80.592 56.571 C 80.879 57.671,81.206 58.813,81.319 59.108 C 81.622 59.901,81.570 60.759,81.141 62.004 C 80.931 62.616,80.625 63.979,80.462 65.034 C 80.231 66.519,80.044 67.125,79.631 67.714 C 79.337 68.133,78.836 68.995,78.517 69.629 C 77.955 70.746,75.291 73.714,74.851 73.714 C 74.740 73.714,74.024 74.137,73.258 74.653 C 72.493 75.169,71.362 75.737,70.743 75.915 C 70.125 76.093,69.070 76.485,68.399 76.787 C 66.147 77.801,65.492 77.915,61.308 78.022 C 57.104 78.129,56.060 78.001,55.286 77.283 L 54.857 76.886 54.857 64.667 C 54.857 46.815,54.988 46.177,58.710 45.902 C 61.433 45.701,62.354 45.703,65.333 45.914 " stroke="none" fill="#818186" fill-rule="evenodd"></path><path id="path4" d="M273.992 30.476 C 167.367 30.567,161.576 30.589,161.094 30.905 C 160.814 31.088,160.475 31.431,160.340 31.667 C 160.142 32.013,160.095 41.467,160.095 80.762 C 160.095 136.601,159.859 130.342,162.000 131.162 L 163.143 131.600 274.973 131.609 C 356.279 131.615,386.969 131.560,387.409 131.407 C 387.814 131.266,388.153 130.936,388.435 130.408 L 388.857 129.619 388.913 81.524 C 388.973 29.825,389.006 32.101,388.176 31.155 C 387.424 30.299,399.284 30.370,273.992 30.476 M387.636 32.354 C 387.992 32.795,388.000 33.827,388.000 80.796 C 388.000 129.389,388.001 129.326,387.352 129.759 C 387.237 129.836,336.756 129.900,275.172 129.902 C 154.714 129.905,162.474 129.963,161.719 129.053 C 161.575 128.880,161.515 114.606,161.516 80.832 L 161.518 32.857 162.133 32.333 L 162.749 31.809 275.010 31.857 L 387.272 31.905 387.636 32.354 M126.381 34.034 C 126.171 34.080,125.657 34.251,125.238 34.414 C 124.819 34.577,123.460 34.787,122.218 34.881 C 119.301 35.103,117.029 35.608,115.209 36.439 C 114.407 36.805,113.464 37.166,113.113 37.241 C 112.149 37.446,110.988 38.015,110.567 38.489 C 110.360 38.722,109.750 39.109,109.212 39.349 C 108.661 39.595,108.045 40.050,107.803 40.391 C 107.566 40.723,107.080 41.117,106.723 41.267 C 106.366 41.416,105.907 41.821,105.703 42.167 C 105.498 42.514,105.121 42.893,104.864 43.010 C 104.607 43.127,104.211 43.587,103.984 44.032 C 103.757 44.477,103.287 45.253,102.941 45.757 C 102.333 46.641,101.524 48.509,101.524 49.029 C 101.524 49.168,101.349 49.504,101.136 49.775 C 99.593 51.736,99.571 61.208,101.102 64.126 C 101.313 64.528,101.634 65.442,101.815 66.156 C 102.664 69.504,108.610 75.806,112.711 77.705 C 113.635 78.134,114.513 78.720,115.333 79.458 C 115.648 79.740,116.333 80.133,116.857 80.331 C 117.381 80.529,118.253 81.003,118.796 81.385 C 119.338 81.766,120.108 82.215,120.507 82.382 C 120.906 82.548,121.407 82.848,121.620 83.048 C 121.833 83.248,122.691 83.686,123.527 84.020 C 124.363 84.355,125.358 84.872,125.736 85.168 C 126.115 85.464,126.827 85.878,127.317 86.088 C 127.808 86.299,128.685 86.858,129.265 87.331 C 129.846 87.804,130.468 88.190,130.647 88.190 C 130.827 88.190,131.384 88.619,131.886 89.143 C 132.388 89.667,132.904 90.095,133.033 90.095 C 133.319 90.095,133.925 90.768,134.283 91.483 C 134.428 91.775,134.756 92.118,135.011 92.245 C 135.346 92.412,135.643 92.924,136.084 94.095 C 136.420 94.986,136.893 96.098,137.135 96.567 C 137.802 97.858,137.849 103.866,137.198 104.699 C 136.966 104.995,136.570 105.667,136.318 106.190 C 135.626 107.627,134.390 108.827,132.922 109.486 C 132.224 109.799,131.563 110.226,131.451 110.434 C 130.709 111.820,115.972 111.693,113.406 110.277 C 112.870 109.982,111.885 109.643,111.216 109.525 C 108.914 109.120,108.283 108.928,107.409 108.368 C 106.926 108.058,106.075 107.670,105.517 107.504 C 104.959 107.339,104.025 106.988,103.442 106.725 C 100.039 105.193,99.501 105.902,99.587 111.810 C 99.697 119.340,99.771 119.542,102.588 120.064 C 103.819 120.291,105.062 120.683,106.159 121.188 C 107.723 121.908,108.006 121.973,110.159 122.110 C 111.434 122.191,113.205 122.401,114.095 122.576 C 117.068 123.160,122.541 123.165,126.530 122.586 C 128.393 122.316,130.288 122.095,130.742 122.095 C 132.199 122.095,133.518 121.742,134.385 121.119 C 135.002 120.676,135.608 120.453,136.705 120.265 C 138.120 120.023,139.670 119.427,139.915 119.032 C 139.977 118.930,140.601 118.559,141.300 118.206 C 141.999 117.852,142.761 117.305,142.993 116.989 C 143.226 116.673,143.654 116.362,143.946 116.298 C 144.269 116.227,144.984 115.641,145.768 114.805 C 146.478 114.048,147.476 113.000,147.986 112.476 C 148.497 111.952,148.975 111.310,149.049 111.048 C 149.123 110.786,149.471 110.271,149.822 109.905 C 150.315 109.389,150.543 108.893,150.829 107.714 C 151.032 106.876,151.370 105.633,151.579 104.952 C 152.542 101.830,152.634 101.105,152.519 97.554 L 152.411 94.190 151.718 92.702 C 151.336 91.883,150.901 90.554,150.750 89.749 C 150.514 88.488,150.381 88.198,149.795 87.651 C 149.421 87.303,148.995 86.675,148.847 86.258 C 148.479 85.214,147.959 84.522,146.290 82.854 C 145.502 82.067,144.637 81.167,144.369 80.854 C 143.272 79.577,140.985 77.646,140.047 77.204 C 139.496 76.945,138.955 76.564,138.844 76.357 C 138.733 76.150,138.090 75.716,137.415 75.394 C 136.740 75.071,135.952 74.567,135.665 74.274 C 135.378 73.981,134.586 73.477,133.905 73.154 C 133.224 72.831,132.380 72.357,132.030 72.100 C 131.680 71.843,130.928 71.459,130.359 71.246 C 129.790 71.033,128.903 70.526,128.387 70.118 C 127.794 69.649,127.076 69.290,126.439 69.142 C 125.766 68.986,125.206 68.696,124.762 68.273 C 124.395 67.924,123.581 67.409,122.952 67.127 C 122.324 66.846,121.552 66.377,121.238 66.086 C 120.924 65.794,120.297 65.458,119.844 65.339 C 119.227 65.175,118.926 64.959,118.636 64.468 C 118.424 64.108,117.930 63.634,117.537 63.413 C 117.144 63.192,116.672 62.757,116.489 62.446 C 116.305 62.135,115.954 61.789,115.709 61.677 C 115.240 61.463,115.015 61.023,114.656 59.619 C 114.536 59.148,114.197 58.248,113.904 57.619 C 112.963 55.604,112.965 54.356,113.911 52.952 C 114.087 52.690,114.417 51.913,114.644 51.225 C 115.183 49.588,116.466 48.267,118.510 47.244 C 120.008 46.494,120.613 46.334,123.810 45.839 C 126.516 45.420,132.901 45.944,135.262 46.779 C 136.035 47.052,137.181 47.387,137.810 47.524 C 141.014 48.221,142.249 48.639,143.238 49.363 C 143.850 49.810,145.320 50.087,145.844 49.853 C 146.669 49.485,146.756 48.942,146.820 43.783 C 146.896 37.595,146.792 37.285,144.480 36.866 C 144.063 36.790,143.195 36.482,142.551 36.181 C 141.293 35.593,139.949 35.328,137.238 35.133 C 135.345 34.997,131.517 34.414,130.477 34.103 C 129.829 33.910,127.144 33.864,126.381 34.034 M132.223 35.431 C 136.437 35.709,138.379 35.981,139.898 36.506 C 140.635 36.760,142.181 37.229,143.333 37.549 C 144.486 37.868,145.530 38.213,145.654 38.315 C 146.556 39.061,146.360 48.762,145.442 48.762 C 144.903 48.762,140.523 47.316,140.027 46.974 C 139.589 46.671,138.843 46.418,138.000 46.285 C 137.267 46.169,135.895 45.913,134.952 45.716 C 134.010 45.519,132.768 45.299,132.194 45.227 C 131.620 45.154,130.806 44.972,130.385 44.822 C 128.874 44.283,125.433 44.141,124.015 44.559 C 123.326 44.762,121.833 45.143,120.698 45.405 C 117.169 46.222,115.501 47.463,113.900 50.465 C 111.176 55.569,112.385 60.128,117.694 64.762 C 118.354 65.338,119.127 65.938,119.412 66.095 C 119.697 66.252,120.230 66.615,120.597 66.901 C 120.964 67.187,121.637 67.552,122.092 67.713 C 122.547 67.874,123.290 68.309,123.743 68.680 C 124.196 69.051,124.975 69.492,125.474 69.659 C 125.973 69.827,126.767 70.228,127.238 70.552 C 128.370 71.328,129.271 71.810,129.592 71.810 C 129.735 71.810,130.186 72.077,130.593 72.403 C 131.000 72.730,131.933 73.275,132.667 73.613 C 133.400 73.952,134.171 74.425,134.381 74.665 C 134.590 74.904,135.291 75.338,135.937 75.630 C 136.583 75.922,137.593 76.553,138.182 77.033 C 138.771 77.512,139.343 77.905,139.453 77.905 C 140.229 77.905,147.421 85.190,148.039 86.602 C 148.169 86.899,148.600 87.625,148.995 88.214 C 150.589 90.586,152.004 98.854,151.248 101.376 C 151.123 101.792,150.857 103.110,150.655 104.305 C 150.057 107.860,149.189 109.752,147.205 111.822 C 146.715 112.333,146.261 112.921,146.195 113.128 C 146.129 113.335,145.781 113.687,145.422 113.909 C 145.062 114.131,144.615 114.508,144.428 114.745 C 144.241 114.983,143.704 115.416,143.234 115.707 C 142.765 115.998,142.167 116.435,141.905 116.679 C 141.643 116.922,140.871 117.408,140.190 117.758 C 139.510 118.109,138.567 118.619,138.095 118.891 C 137.624 119.163,136.638 119.494,135.905 119.627 C 135.171 119.759,133.911 120.150,133.104 120.494 C 130.342 121.674,120.943 122.294,114.762 121.705 C 113.714 121.605,111.957 121.447,110.857 121.353 C 109.235 121.215,108.606 121.067,107.527 120.569 C 106.718 120.196,105.524 119.849,104.479 119.682 C 100.907 119.112,100.728 118.823,100.554 113.333 C 100.348 106.858,100.745 106.429,105.048 108.469 C 107.085 109.434,107.442 109.568,109.429 110.107 C 110.267 110.334,111.554 110.759,112.289 111.050 C 113.317 111.458,114.309 111.651,116.575 111.887 C 118.197 112.056,120.424 112.295,121.524 112.418 C 123.939 112.689,125.768 112.647,127.427 112.284 C 128.109 112.134,129.298 111.930,130.069 111.828 C 131.228 111.676,131.658 111.514,132.545 110.894 C 133.136 110.482,134.064 109.920,134.609 109.646 C 135.153 109.371,135.735 108.953,135.901 108.716 C 136.068 108.480,136.415 107.986,136.673 107.619 C 138.783 104.616,139.263 97.975,137.601 94.762 C 137.330 94.238,136.910 93.424,136.669 92.952 C 136.058 91.761,132.940 88.638,131.308 87.582 C 130.561 87.099,129.891 86.608,129.818 86.490 C 129.745 86.372,129.071 85.967,128.319 85.589 C 127.567 85.211,126.719 84.707,126.433 84.468 C 126.148 84.228,125.591 83.927,125.195 83.798 C 124.800 83.669,124.133 83.331,123.714 83.045 C 123.295 82.760,122.395 82.246,121.714 81.903 C 121.033 81.560,120.219 81.083,119.904 80.843 C 119.589 80.603,118.775 80.157,118.094 79.851 C 117.414 79.546,116.600 79.080,116.286 78.817 C 115.971 78.554,115.420 78.189,115.061 78.004 C 114.702 77.820,113.973 77.325,113.442 76.904 C 112.911 76.483,112.108 75.980,111.658 75.787 C 109.751 74.966,105.214 70.499,104.109 68.355 C 103.712 67.583,103.179 66.598,102.926 66.164 C 102.480 65.401,101.493 61.955,101.107 59.810 C 100.838 58.317,101.032 53.239,101.395 52.286 C 101.554 51.867,101.867 50.881,102.090 50.095 C 102.314 49.310,102.642 48.396,102.820 48.065 C 104.221 45.458,104.754 44.597,105.345 43.991 C 105.718 43.609,106.189 43.087,106.392 42.833 C 106.596 42.579,107.062 42.167,107.429 41.917 C 107.795 41.668,108.405 41.171,108.785 40.813 C 109.969 39.695,113.681 37.835,115.599 37.400 C 116.291 37.243,117.243 36.939,117.714 36.724 C 119.250 36.024,121.000 35.620,122.571 35.602 C 123.409 35.593,124.524 35.519,125.048 35.437 C 126.464 35.217,128.947 35.215,132.223 35.431 M10.919 36.838 C 9.715 37.384,9.729 37.280,9.805 44.952 C 9.855 50.074,9.803 52.507,9.607 54.190 C 9.263 57.148,9.206 90.741,9.543 91.811 C 9.689 92.271,9.751 96.619,9.745 105.889 C 9.735 120.283,9.709 119.875,10.703 120.953 L 11.143 121.430 16.319 121.334 C 21.484 121.238,21.495 121.237,21.989 120.773 C 23.112 119.717,23.055 121.974,23.044 79.218 C 23.039 57.675,23.091 39.701,23.159 39.276 C 23.306 38.357,22.818 37.520,21.842 37.015 C 20.980 36.568,11.840 36.421,10.919 36.838 M42.965 36.935 C 41.861 37.604,41.939 34.646,41.883 77.623 C 41.854 99.307,41.832 117.562,41.833 118.190 C 41.838 121.051,42.400 121.365,47.599 121.419 C 49.862 121.442,52.145 121.528,52.672 121.609 L 53.629 121.757 54.910 120.326 L 56.190 118.895 56.193 104.733 C 56.195 89.520,56.201 89.375,56.884 88.692 L 57.337 88.239 63.383 88.153 L 69.429 88.068 71.372 87.284 C 72.552 86.808,73.935 86.410,74.895 86.270 C 76.830 85.990,77.767 85.674,78.502 85.055 C 78.812 84.795,79.425 84.485,79.865 84.366 C 80.956 84.072,82.016 83.510,82.333 83.059 C 82.477 82.852,83.019 82.505,83.536 82.286 C 84.053 82.067,84.838 81.528,85.280 81.087 C 85.722 80.646,86.279 80.094,86.518 79.860 C 88.053 78.356,88.767 77.526,89.104 76.857 C 89.314 76.438,89.709 75.903,89.981 75.668 C 90.254 75.433,90.476 75.156,90.476 75.054 C 90.476 74.683,91.619 72.381,91.985 72.015 C 92.369 71.631,92.509 71.200,93.028 68.810 C 93.193 68.051,93.530 67.108,93.778 66.715 C 94.680 65.281,94.739 64.810,94.746 59.048 C 94.753 53.328,94.600 51.880,93.899 50.988 C 93.698 50.732,93.274 49.725,92.958 48.748 C 92.574 47.563,92.195 46.778,91.818 46.390 C 91.508 46.070,91.123 45.436,90.963 44.982 C 90.579 43.895,88.380 41.676,87.349 41.338 C 86.939 41.203,86.253 40.769,85.825 40.375 C 85.317 39.906,84.659 39.544,83.932 39.333 C 83.319 39.155,82.277 38.756,81.617 38.447 C 80.111 37.742,77.526 37.216,74.145 36.927 C 70.042 36.575,43.547 36.582,42.965 36.935 M20.771 37.714 C 21.142 37.817,21.595 38.010,21.776 38.142 C 22.256 38.493,22.276 118.457,21.797 119.189 C 21.322 119.913,20.810 119.986,15.986 120.018 C 11.517 120.048,11.381 120.037,10.982 119.638 C 10.081 118.738,9.896 38.807,10.793 37.901 C 11.194 37.495,19.429 37.341,20.771 37.714 M75.577 37.884 C 76.340 38.012,77.856 38.412,78.945 38.773 C 80.035 39.133,81.100 39.429,81.313 39.429 C 81.917 39.429,83.760 40.174,84.336 40.651 C 84.623 40.888,85.414 41.355,86.095 41.688 C 87.713 42.480,89.552 44.276,90.405 45.895 C 90.766 46.582,91.275 47.438,91.536 47.798 C 91.798 48.159,92.187 49.059,92.402 49.798 C 92.617 50.538,92.963 51.556,93.170 52.061 C 94.339 54.915,94.329 62.345,93.152 65.315 C 92.928 65.881,92.622 66.996,92.472 67.791 C 92.314 68.634,91.886 69.874,91.446 70.762 C 91.032 71.600,90.470 72.757,90.197 73.333 C 89.326 75.177,87.604 77.492,85.714 79.362 C 84.297 80.764,83.852 81.113,82.593 81.810 C 81.835 82.229,80.857 82.840,80.418 83.169 C 79.980 83.498,79.299 83.826,78.906 83.898 C 78.512 83.970,77.650 84.329,76.988 84.697 C 76.110 85.185,75.340 85.434,74.131 85.622 C 71.528 86.027,70.520 86.253,69.904 86.572 C 69.060 87.008,66.766 87.241,61.627 87.413 C 56.757 87.576,55.549 87.814,55.123 88.696 C 55.030 88.889,54.910 95.737,54.858 103.913 C 54.769 117.700,54.738 118.816,54.426 119.292 C 53.982 119.969,53.222 120.452,52.834 120.303 C 52.663 120.237,50.499 120.142,48.026 120.090 C 42.148 119.969,42.553 120.286,42.618 115.853 C 42.644 114.101,42.654 109.795,42.641 106.286 C 42.512 72.740,42.703 38.554,43.020 38.237 C 43.707 37.550,44.298 37.527,59.429 37.590 C 69.897 37.634,74.594 37.719,75.577 37.884 M58.710 45.902 C 54.988 46.177,54.857 46.815,54.857 64.667 L 54.857 76.886 55.286 77.283 C 56.060 78.001,57.104 78.129,61.308 78.022 C 65.492 77.915,66.147 77.801,68.399 76.787 C 69.070 76.485,70.125 76.093,70.743 75.915 C 71.362 75.737,72.493 75.169,73.258 74.653 C 74.024 74.137,74.740 73.714,74.851 73.714 C 75.291 73.714,77.955 70.746,78.517 69.629 C 78.836 68.995,79.337 68.133,79.631 67.714 C 80.044 67.125,80.231 66.519,80.462 65.034 C 80.625 63.979,80.931 62.616,81.141 62.004 C 81.570 60.759,81.622 59.901,81.319 59.108 C 81.206 58.813,80.879 57.671,80.592 56.571 C 79.901 53.920,77.941 51.225,75.524 49.601 C 75.000 49.249,74.351 48.782,74.081 48.563 C 73.811 48.344,72.887 47.961,72.027 47.711 C 71.168 47.461,70.242 47.081,69.969 46.867 C 68.820 45.963,63.755 45.529,58.710 45.902 M64.286 46.760 C 65.229 46.799,66.600 47.002,67.333 47.210 C 68.067 47.419,69.310 47.769,70.095 47.988 C 72.529 48.666,72.836 48.795,73.572 49.455 C 73.965 49.807,74.417 50.095,74.576 50.095 C 74.961 50.095,77.578 52.694,77.977 53.474 C 78.151 53.813,78.535 54.370,78.831 54.712 C 80.565 56.716,80.576 65.135,78.847 67.027 C 78.558 67.344,78.173 68.057,77.991 68.611 C 77.590 69.834,77.107 70.554,76.411 70.965 C 76.123 71.135,75.692 71.560,75.453 71.909 C 75.159 72.337,74.551 72.765,73.578 73.227 C 72.787 73.603,71.857 74.158,71.513 74.460 C 71.048 74.868,70.430 75.114,69.110 75.416 C 67.982 75.674,67.036 76.023,66.519 76.372 C 65.564 77.015,64.584 77.139,59.992 77.199 C 57.559 77.231,56.950 77.184,56.572 76.935 L 56.113 76.632 56.169 64.518 C 56.229 51.473,56.386 48.596,57.089 47.650 C 57.533 47.053,60.229 46.439,61.714 46.597 C 62.186 46.647,63.343 46.721,64.286 46.760 M176.314 47.623 C 174.976 47.742,174.376 48.293,174.194 49.568 C 174.131 50.015,174.104 64.325,174.135 81.367 L 174.190 112.353 174.592 112.891 C 175.381 113.948,173.861 113.911,214.952 113.882 C 237.859 113.866,253.255 113.784,253.864 113.674 C 255.437 113.393,255.741 113.006,256.309 110.571 C 256.577 109.419,257.168 107.362,257.622 106.000 C 258.075 104.638,258.542 102.881,258.659 102.095 C 259.039 99.553,258.642 99.638,270.231 99.627 C 280.738 99.618,279.827 99.409,280.144 101.895 C 280.294 103.069,280.464 103.576,280.940 104.268 C 281.715 105.394,281.863 105.849,282.070 107.745 C 282.195 108.892,282.420 109.679,282.929 110.752 C 283.309 111.551,283.623 112.266,283.627 112.341 C 283.631 112.415,283.891 112.776,284.204 113.143 L 284.774 113.810 295.482 113.842 C 308.080 113.881,309.324 113.833,309.908 113.289 C 310.446 112.788,310.294 111.159,309.597 109.956 C 309.341 109.512,308.885 108.295,308.584 107.252 C 308.284 106.208,307.892 105.071,307.712 104.725 C 307.533 104.379,307.232 103.538,307.043 102.857 C 306.133 99.581,305.853 98.742,305.426 98.012 C 305.171 97.578,304.846 96.670,304.702 95.993 C 304.558 95.316,304.086 94.076,303.654 93.238 C 303.157 92.275,302.758 91.153,302.571 90.190 C 302.408 89.352,301.977 88.067,301.613 87.333 C 301.249 86.600,300.793 85.357,300.601 84.571 C 300.408 83.786,299.945 82.543,299.573 81.810 C 299.201 81.076,298.839 80.133,298.769 79.714 C 298.569 78.516,297.987 76.754,297.448 75.714 C 297.176 75.190,296.877 74.376,296.784 73.905 C 296.434 72.145,295.964 70.643,295.517 69.857 C 295.263 69.412,294.917 68.576,294.749 68.000 C 294.223 66.206,293.858 65.263,293.415 64.556 C 293.180 64.180,292.810 63.035,292.593 62.010 C 292.325 60.745,292.018 59.875,291.635 59.298 C 291.272 58.749,290.925 57.800,290.655 56.615 C 290.412 55.550,289.971 54.298,289.601 53.625 C 289.252 52.989,288.834 51.843,288.673 51.079 C 288.341 49.499,288.213 49.211,287.589 48.637 C 286.401 47.544,287.053 47.582,269.537 47.589 C 250.924 47.597,252.770 47.373,252.060 49.709 C 251.828 50.471,251.416 51.415,251.145 51.807 C 250.873 52.199,250.600 52.852,250.537 53.259 C 250.475 53.667,250.359 54.086,250.281 54.190 C 250.202 54.295,250.078 54.852,250.004 55.429 C 249.915 56.132,249.629 56.883,249.135 57.714 C 248.631 58.563,248.305 59.431,248.097 60.476 C 247.930 61.314,247.505 62.600,247.153 63.333 C 246.490 64.711,246.113 65.780,245.622 67.670 C 245.465 68.274,245.132 69.174,244.882 69.670 C 244.426 70.577,243.810 72.927,243.810 73.762 C 243.810 74.009,243.547 74.625,243.226 75.131 C 242.905 75.637,242.509 76.618,242.344 77.311 C 241.848 79.406,241.295 81.143,241.124 81.143 C 240.814 81.143,240.400 82.237,240.139 83.749 C 239.935 84.934,239.743 85.439,239.279 86.017 C 238.835 86.570,238.576 87.221,238.271 88.544 C 238.046 89.525,237.539 91.025,237.146 91.878 C 236.753 92.731,236.333 93.888,236.213 94.450 C 236.093 95.012,235.738 96.056,235.425 96.770 C 235.112 97.484,234.563 99.230,234.205 100.650 C 233.847 102.069,233.388 103.468,233.185 103.758 C 232.672 104.489,232.413 105.370,232.106 107.426 C 231.801 109.466,231.523 109.916,230.892 109.390 C 230.488 109.052,230.481 108.947,230.422 101.905 C 230.389 97.976,230.292 94.610,230.206 94.423 C 229.837 93.621,229.831 93.621,215.238 93.575 C 207.538 93.550,201.176 93.529,201.100 93.527 C 200.282 93.508,200.291 93.738,200.190 71.056 C 200.084 47.117,200.196 48.968,198.795 47.925 C 198.262 47.527,180.129 47.284,176.314 47.623 M314.398 47.804 C 314.081 47.964,313.648 48.395,313.435 48.762 C 312.868 49.738,312.818 111.761,313.384 112.625 C 314.216 113.895,312.728 113.807,333.801 113.835 C 357.383 113.866,360.474 113.770,362.381 112.947 C 362.590 112.857,363.276 112.685,363.905 112.566 C 366.803 112.015,367.788 111.727,368.762 111.144 C 369.338 110.799,370.238 110.280,370.762 109.990 C 372.171 109.210,372.381 109.067,372.381 108.890 C 372.381 108.802,372.831 108.280,373.381 107.732 C 376.555 104.566,376.562 104.543,376.702 97.524 C 376.838 90.718,376.659 88.891,375.744 87.738 C 375.400 87.306,374.973 86.716,374.793 86.427 C 374.613 86.139,374.044 85.582,373.529 85.189 C 373.013 84.797,372.541 84.335,372.479 84.162 C 372.418 83.989,372.152 83.793,371.889 83.727 C 371.626 83.661,371.051 83.236,370.610 82.782 C 369.658 81.801,369.290 81.592,368.027 81.321 C 366.072 80.902,366.692 78.985,369.007 78.292 C 369.505 78.143,370.149 77.690,370.804 77.030 C 371.366 76.463,371.919 76.000,372.033 76.000 C 372.950 76.000,375.167 72.525,376.044 69.714 C 376.529 68.160,376.749 62.193,376.390 60.315 C 376.129 58.944,374.052 54.520,373.483 54.122 C 373.271 53.973,372.585 53.394,371.959 52.836 C 369.272 50.438,367.678 49.677,363.429 48.761 C 362.014 48.457,360.429 48.064,359.905 47.889 C 358.510 47.422,315.312 47.342,314.398 47.804 M197.839 48.990 C 198.447 49.788,198.476 50.811,198.476 71.357 C 198.476 93.486,198.441 92.765,199.563 93.922 C 200.684 95.079,201.214 95.265,202.463 94.940 C 203.526 94.663,226.493 94.527,227.806 94.790 C 228.212 94.871,228.482 95.117,228.788 95.689 C 229.353 96.742,229.530 104.472,229.052 107.208 C 228.893 108.115,228.763 109.211,228.763 109.643 C 228.762 110.819,228.581 111.507,228.125 112.069 L 227.714 112.575 202.390 112.581 C 177.978 112.587,177.047 112.575,176.580 112.233 C 175.374 111.350,175.458 113.668,175.439 80.471 L 175.422 50.318 175.826 49.634 C 176.279 48.866,176.709 48.703,178.271 48.707 C 190.905 48.741,195.660 48.711,196.286 48.592 C 197.069 48.443,197.509 48.555,197.839 48.990 M337.048 48.770 L 357.619 48.876 359.048 49.368 C 359.883 49.656,361.148 49.911,362.095 49.983 C 365.299 50.226,365.826 50.367,367.143 51.333 C 367.457 51.563,368.093 51.899,368.556 52.078 C 369.019 52.257,369.821 52.784,370.339 53.249 C 370.856 53.715,371.349 54.095,371.435 54.095 C 371.975 54.095,373.702 56.690,374.017 57.975 C 374.200 58.721,374.571 59.804,374.842 60.380 C 375.416 61.605,375.482 65.665,374.957 67.518 C 374.807 68.045,374.547 68.990,374.377 69.619 C 373.585 72.562,373.503 72.766,372.942 73.181 C 372.633 73.409,372.381 73.735,372.381 73.905 C 372.381 74.285,371.547 75.087,370.714 75.507 C 370.374 75.679,370.095 75.931,370.095 76.067 C 370.095 76.566,369.202 77.084,367.785 77.406 C 363.468 78.387,362.870 81.434,366.828 82.279 C 367.794 82.486,368.699 82.722,368.840 82.804 C 369.220 83.024,370.571 84.175,371.509 85.078 C 371.963 85.514,372.606 86.011,372.940 86.184 C 373.348 86.395,373.671 86.790,373.928 87.392 C 374.138 87.883,374.508 88.500,374.751 88.762 C 375.737 89.828,375.864 90.805,375.762 96.547 C 375.664 102.084,375.581 102.655,374.731 103.681 C 374.486 103.977,374.286 104.311,374.286 104.424 C 374.286 105.303,369.736 109.489,368.752 109.516 C 368.589 109.520,368.097 109.788,367.658 110.110 C 367.073 110.541,366.468 110.766,365.383 110.955 C 364.570 111.097,363.090 111.354,362.095 111.527 C 361.100 111.699,359.300 111.919,358.095 112.016 C 356.890 112.112,355.562 112.274,355.143 112.374 C 354.360 112.562,315.282 112.679,315.097 112.494 C 315.043 112.440,314.928 112.028,314.841 111.579 C 314.652 110.603,314.647 49.826,314.835 49.150 C 314.974 48.654,315.696 48.330,316.190 48.542 C 316.348 48.609,325.733 48.712,337.048 48.770 M285.238 48.855 C 286.454 49.113,287.554 50.677,287.902 52.643 C 288.189 54.269,288.320 54.619,288.871 55.228 C 289.536 55.965,289.824 56.842,290.011 58.705 C 290.083 59.420,290.277 60.005,290.579 60.419 C 291.241 61.325,291.413 61.790,291.820 63.766 C 292.046 64.863,292.465 66.090,292.925 67.004 C 293.591 68.326,294.036 69.814,294.371 71.837 C 294.434 72.219,294.737 72.848,295.045 73.235 C 295.662 74.011,295.687 74.077,296.005 75.714 C 296.127 76.343,296.528 77.456,296.897 78.187 C 297.290 78.964,297.710 80.219,297.908 81.207 C 298.200 82.666,298.340 82.992,298.937 83.603 C 299.562 84.243,299.645 84.455,299.809 85.822 C 300.025 87.617,300.423 88.816,301.050 89.562 C 301.302 89.861,301.560 90.425,301.622 90.815 C 302.024 93.334,302.557 95.074,303.152 95.810 C 303.279 95.967,303.527 96.695,303.703 97.429 C 304.203 99.519,304.780 101.203,305.138 101.619 C 305.557 102.104,305.656 102.393,306.014 104.167 C 306.175 104.966,306.460 105.833,306.647 106.095 C 308.045 108.046,308.728 112.061,307.728 112.445 C 307.065 112.699,285.282 112.607,285.123 112.349 C 285.039 112.214,284.820 111.544,284.636 110.861 C 284.452 110.178,284.063 109.276,283.771 108.857 C 283.267 108.135,283.024 107.233,282.753 105.075 C 282.664 104.361,282.472 103.970,281.913 103.361 C 281.268 102.658,281.167 102.410,280.994 101.100 C 280.555 97.789,280.953 97.905,270.022 97.905 C 258.124 97.905,258.380 97.824,257.598 101.810 C 257.454 102.543,257.228 103.229,257.097 103.333 C 256.516 103.795,256.332 104.297,256.002 106.322 C 255.708 108.123,255.489 108.808,254.668 110.497 L 253.685 112.518 243.716 112.552 C 238.233 112.571,233.522 112.531,233.248 112.462 C 232.422 112.254,232.136 111.291,232.562 110.154 C 232.751 109.650,232.967 108.724,233.043 108.095 C 233.192 106.861,233.348 106.469,234.006 105.678 C 234.295 105.331,234.537 104.595,234.757 103.402 C 234.942 102.395,235.319 101.165,235.637 100.536 C 236.346 99.132,236.681 98.122,236.953 96.571 C 237.076 95.872,237.446 94.836,237.803 94.190 C 238.150 93.562,238.537 92.533,238.662 91.905 C 239.044 89.983,239.456 88.711,240.022 87.707 C 240.346 87.131,240.713 86.002,240.937 84.887 C 241.236 83.401,241.426 82.897,241.885 82.374 C 242.487 81.689,242.741 80.956,242.955 79.288 C 243.042 78.606,243.313 77.934,243.813 77.161 C 244.377 76.289,244.614 75.650,244.856 74.349 C 245.143 72.812,245.435 72.004,246.187 70.661 C 246.335 70.397,246.640 69.325,246.865 68.280 C 247.105 67.162,247.420 66.222,247.630 65.995 C 248.149 65.433,248.571 64.142,248.872 62.194 C 249.031 61.165,249.281 60.288,249.499 59.993 C 250.183 59.068,250.721 57.618,250.947 56.092 C 251.134 54.827,251.290 54.412,251.850 53.677 C 252.355 53.016,252.583 52.471,252.746 51.533 C 253.122 49.376,253.459 48.989,255.133 48.784 C 256.181 48.656,284.616 48.724,285.238 48.855 M338.571 59.453 C 336.062 59.715,335.934 60.019,335.844 65.912 C 335.721 73.933,335.725 73.938,341.333 73.921 C 346.733 73.904,349.627 73.112,350.999 71.274 C 351.288 70.888,351.590 70.542,351.672 70.506 C 353.174 69.844,353.132 64.620,351.610 62.936 C 351.223 62.508,350.758 61.930,350.575 61.652 C 350.377 61.350,349.950 61.067,349.511 60.949 C 349.108 60.840,348.730 60.674,348.671 60.579 C 348.149 59.734,342.214 59.072,338.571 59.453 M346.476 61.440 C 347.262 61.684,348.264 61.976,348.702 62.089 C 350.519 62.556,351.932 65.803,351.236 67.911 C 350.115 71.308,348.550 72.052,342.000 72.303 C 337.052 72.492,337.075 72.516,336.987 67.143 C 336.914 62.664,337.031 62.096,338.185 61.313 L 338.941 60.801 341.994 60.898 C 344.462 60.977,345.321 61.081,346.476 61.440 M269.094 62.119 C 268.497 62.453,267.857 63.869,267.652 65.312 C 267.486 66.483,267.352 66.823,266.859 67.331 C 266.339 67.868,266.232 68.171,265.988 69.795 C 265.726 71.539,265.582 71.954,264.602 73.787 C 264.384 74.193,264.154 74.922,264.090 75.406 C 263.909 76.778,263.285 78.746,262.859 79.288 C 262.129 80.216,261.848 82.955,262.429 83.481 C 263.140 84.125,263.830 84.195,269.693 84.218 C 277.356 84.249,277.160 84.340,276.778 80.917 C 276.562 78.981,276.224 77.806,275.648 76.987 C 275.206 76.360,275.103 76.035,274.660 73.873 C 274.425 72.727,274.149 71.952,273.822 71.523 C 273.351 70.905,272.936 69.477,272.670 67.551 C 272.572 66.845,272.369 66.439,271.812 65.834 C 271.368 65.353,271.029 64.762,270.948 64.329 C 270.874 63.937,270.652 63.410,270.455 63.159 C 270.257 62.907,270.095 62.611,270.095 62.500 C 270.095 62.163,269.453 61.918,269.094 62.119 M269.796 64.299 C 269.961 64.464,270.095 64.740,270.095 64.914 C 270.095 65.355,271.076 67.810,271.253 67.810 C 271.436 67.810,271.907 69.275,272.201 70.762 C 272.432 71.930,273.006 73.888,273.318 74.571 C 274.613 77.412,275.691 82.212,275.136 82.672 C 274.718 83.020,265.565 83.199,264.715 82.875 C 263.712 82.494,263.877 79.934,265.090 77.072 C 265.900 75.160,266.100 74.567,266.862 71.810 C 267.196 70.605,267.678 69.105,267.933 68.476 C 268.189 67.848,268.479 66.700,268.579 65.926 C 268.813 64.103,269.149 63.653,269.796 64.299 M337.202 85.704 C 336.001 86.222,335.750 87.710,335.837 93.817 C 335.918 99.616,335.975 99.827,337.625 100.439 C 338.762 100.861,344.937 100.648,347.875 100.084 L 349.560 99.761 350.948 98.392 C 352.999 96.367,353.048 96.241,353.048 92.944 C 353.048 89.962,352.885 89.372,351.942 88.929 C 351.712 88.821,351.352 88.460,351.143 88.128 C 350.868 87.692,350.233 87.264,348.857 86.590 L 346.952 85.656 342.286 85.590 C 339.614 85.552,337.441 85.601,337.202 85.704 M345.333 87.328 C 348.360 87.598,349.707 87.997,350.194 88.768 C 350.441 89.158,350.937 89.660,351.298 89.883 C 351.739 90.155,351.992 90.482,352.072 90.882 C 353.166 96.354,349.556 99.441,342.095 99.411 C 336.987 99.391,337.048 99.468,337.048 93.016 C 337.048 86.757,337.261 86.610,345.333 87.328 " stroke="none" fill="#a0c9d9" fill-rule="evenodd"></path></g></svg>